<?xml version="1.0" encoding="UTF-8" standalone="no"?>
<!-- Generator: Adobe Illustrator 19.1.0, SVG Export Plug-In . SVG Version: 6.00 Build 0)  -->

<svg
   xmlns:dc="http://purl.org/dc/elements/1.1/"
   xmlns:cc="http://creativecommons.org/ns#"
   xmlns:rdf="http://www.w3.org/1999/02/22-rdf-syntax-ns#"
   xmlns:svg="http://www.w3.org/2000/svg"
   xmlns="http://www.w3.org/2000/svg"
   xmlns:sodipodi="http://sodipodi.sourceforge.net/DTD/sodipodi-0.dtd"
   xmlns:inkscape="http://www.inkscape.org/namespaces/inkscape"
   version="1.1"
   id="Layer_1"
   x="0px"
   y="0px"
   viewBox="0 0 1134.5039 1399.9016"
   xml:space="preserve"
   sodipodi:docname="duck-tape-approved.svg"
   width="1134.5039"
   height="1399.9016"
   inkscape:version="0.92.2 (5c3e80d, 2017-08-06)"
   inkscape:export-filename="/home/rac/Documents/electronics/breakout-boards/ublox_NINA-W102/silkscreen/duck-tape-approved.png"
   inkscape:export-xdpi="96"
   inkscape:export-ydpi="96"><metadata
     id="metadata61"><rdf:RDF><cc:Work
         rdf:about=""><dc:format>image/svg+xml</dc:format><dc:type
           rdf:resource="http://purl.org/dc/dcmitype/StillImage" /><dc:title></dc:title></cc:Work></rdf:RDF></metadata><defs
     id="defs59" /><sodipodi:namedview
     pagecolor="#ffffff"
     bordercolor="#666666"
     borderopacity="1"
     objecttolerance="10"
     gridtolerance="10"
     guidetolerance="10"
     inkscape:pageopacity="0"
     inkscape:pageshadow="2"
     inkscape:window-width="2521"
     inkscape:window-height="1788"
     id="namedview57"
     showgrid="false"
     fit-margin-top="0"
     fit-margin-left="0"
     fit-margin-right="0"
     fit-margin-bottom="0"
     inkscape:zoom="0.39642997"
     inkscape:cx="483.43134"
     inkscape:cy="408.55935"
     inkscape:window-x="0"
     inkscape:window-y="0"
     inkscape:window-maximized="0"
     inkscape:current-layer="Layer_1" /><style
     type="text/css"
     id="style2">
	.st0{fill:#223B7C;}
	.st1{fill:#FFFFFF;}
</style><g
     id="g14"
     transform="matrix(42.811468,0,0,42.811468,-11815.965,-10587.309)"><path
       d="m 289.40039,247.30078 -12.20117,7.09961 V 268.5 l 12.20117,7.09961 L 301.69922,268.5 V 254.40039 Z M 289.5,248.125 c 0.15,0 0.30039,0.0242 0.40039,0.0742 l 10.79883,6.3008 c 0.2,0.1 0.40039,0.39922 0.40039,0.69922 v 12.5 c 0,0.3 -0.20039,0.50117 -0.40039,0.70117 l -10.79883,6.29883 c -0.2,0.1 -0.60078,0.1 -0.80078,0 l -10.79883,-6.29883 c -0.2,-0.1 -0.40039,-0.40117 -0.40039,-0.70117 v -12.5 c 0,-0.3 0.20039,-0.59922 0.40039,-0.69922 l 10.79883,-6.30078 c 0.1,-0.05 0.25039,-0.0742 0.40039,-0.0742 z"
       id="polygon6"
       inkscape:connector-curvature="0" /></g><g
     id="g20"
     style="fill:#000000"
     transform="matrix(42.811468,0,0,42.811468,-11815.965,-10587.309)"><path
       class="st1"
       d="m 283.3,269.9 c 0,-0.2 0,-0.4 0,-0.5 -0.4,0 -0.7,0 -1.1,0 0,-0.2 0,-0.4 0,-0.6 -0.2,0 -0.3,0 -0.5,0 0,-0.2 0,-0.4 0,-0.5 -0.2,0 -0.4,0 -0.6,0 0,-0.2 0,-0.3 0,-0.5 -0.2,0 -0.4,0 -0.5,0 0,-1.5 0,-2.9 0,-4.4 0.2,0 0.3,0 0.5,0 0,-0.4 0,-0.7 0,-1.1 0.2,0 0.4,0 0.6,0 0,-0.2 0,-0.3 0,-0.5 0.4,0 0.7,0 1.1,0 0,-0.2 0,-0.4 0,-0.6 0.2,0 0.3,0 0.5,0 0,-0.2 0,-0.4 0,-0.6 0.4,0 0.7,0 1.1,0 0,-0.2 0,-0.4 0,-0.5 0.2,0 0.4,0 0.5,0 0,-0.4 0,-0.7 0,-1.1 -0.2,0 -0.3,0 -0.5,0 0,-0.4 0,-0.7 0,-1.1 -0.2,0 -0.4,0 -0.6,0 0,-0.4 0,-0.7 0,-1.1 -0.2,0 -0.4,0 -0.6,0 0,-0.4 0,-0.7 0,-1.1 -0.2,0 -0.4,0 -0.5,0 0,-0.4 0,-0.7 0,-1.1 0.7,0 1.4,0 2.2,0 0,-0.2 0,-0.4 0,-0.5 0.2,0 0.4,0 0.5,0 0,-0.2 0,-0.4 0,-0.6 0.4,0 0.7,0 1.1,0 0,-0.2 0,-0.4 0,-0.5 1.5,0 2.9,0 4.4,0 0,0.2 0,0.3 0,0.5 0.4,0 0.7,0 1.1,0 0,0.2 0,0.4 0,0.6 0.2,0 0.3,0 0.5,0 0,0.2 0,0.4 0,0.5 0.2,0 0.4,0 0.6,0 0,0.5 0,1.1 0,1.6 0.2,0 0.4,0 0.5,0 0,0.5 0,1.1 0,1.6 -0.2,0 -0.3,0 -0.5,0 0,0.4 0,0.7 0,1.1 -0.2,0 -0.4,0 -0.6,0 0,0.2 0,0.3 0,0.5 -0.2,0 -0.4,0 -0.5,0 0,0.2 0,0.4 0,0.6 -0.2,0 -0.3,0 -0.5,0 0,0.2 0,0.4 0,0.5 -0.2,0 -0.4,0 -0.6,0 0,0.2 0,0.3 0,0.5 -0.2,0 -0.4,0 -0.5,0 0,0.2 0,0.4 0,0.6 0.3,0 0.7,0 1.1,0 0,0.2 0,0.4 0,0.6 0.7,0 1.5,0 2.2,0 0,0.2 0,0.4 0,0.5 0.2,0 0.4,0 0.5,0 0,1.1 0,2.2 0,3.3 -0.2,0 -0.3,0 -0.5,0 0,0.2 0,0.4 0,0.6 -0.4,0 -0.7,0 -1.1,0 0,0.2 0,0.4 0,0.5 -0.7,0 -1.5,0 -2.2,0 0,0.2 0,0.4 0,0.6 -0.4,0 -0.7,0 -1.1,0 0,-0.2 0,-0.3 0,-0.5 -0.5,0 -1.1,0 -1.6,0 0,-0.2 0,-0.4 0,-0.5 -0.2,0 -0.4,0 -0.5,0 0,-0.2 0,-0.4 0,-0.6 -0.2,0 -0.3,0 -0.5,0 0,-0.9 0,-1.8 0,-2.8 0.2,0 0.3,0 0.5,0 0,-0.2 0,-0.3 0,-0.5 0.4,0 0.7,0 1.1,0 0,-0.2 0,-0.4 0,-0.6 0.5,0 1.1,0 1.6,0 0,-0.2 0,-0.4 0,-0.6 -1.1,0 -2.2,0 -3.3,0 0,-0.2 0,-0.4 0,-0.5 -0.7,0 -1.5,0 -2.2,0 0,0.2 0,0.3 0,0.5 -0.2,0 -0.3,0 -0.5,0 0,0.2 0,0.4 0,0.5 -0.2,0 -0.4,0 -0.6,0 0,0.5 0,1.1 0,1.6 -0.2,0 -0.4,0 -0.5,0 0,0.4 0,0.7 0,1.1 0.2,0 0.3,0 0.5,0 0,0.4 0,0.7 0,1.1 0.2,0 0.4,0 0.6,0 0,0.2 0,0.3 0,0.5 0.2,0 0.4,0 0.5,0 0,0.2 0,0.4 0,0.6 0.2,0 0.3,0 0.5,0 0,0.2 0,0.3 0,0.5 0.4,0 0.7,0 1.1,0 0,0.2 0,0.4 0,0.5 0.5,0 1.1,0 1.6,0 0,0.2 0,0.4 0,0.6 0.9,0 1.8,0 2.8,0 0,-0.2 0,-0.3 0,-0.5 0.7,0 1.5,0 2.2,0 0,-0.2 0,-0.4 0,-0.5 0.4,0 0.7,0 1.1,0 0,-0.2 0,-0.4 0,-0.6 0.2,0 0.3,0 0.5,0 0,-0.2 0,-0.3 0,-0.5 0.2,0 0.4,0 0.6,0 0,-0.4 0,-0.7 0,-1.1 0.2,0 0.4,0 0.5,0 0,-0.9 0,-1.8 0,-2.8 -0.2,0 -0.3,0 -0.5,0 0,-0.2 0,-0.3 0,-0.5 -0.2,0 -0.3,0 -0.5,0 0,-0.2 0,-0.3 0,-0.5 -0.2,0 -0.3,0 -0.5,0 0,-0.4 0,-0.7 0,-1.1 0.4,0 0.7,0 1.1,0 0,-0.2 0,-0.4 0,-0.5 0.2,0 0.4,0 0.5,0 0,-0.2 0,-0.3 0,-0.5 0.5,0 1.1,0 1.6,0 0,0.2 0,0.3 0,0.5 0.2,0 0.3,0 0.5,0 0,0.2 0,0.3 0,0.5 0.2,0 0.3,0 0.5,0 0,0.9 0,1.8 0,2.8 -0.2,0 -0.3,0 -0.5,0 0,0.7 0,1.5 0,2.2 -0.2,0 -0.4,0 -0.5,0 0,0.5 0,1.1 0,1.6 -0.2,0 -0.4,0 -0.6,0 0,0.2 0,0.3 0,0.5 -0.2,0 -0.3,0 -0.5,0 0,0.4 0,0.7 0,1.1 -0.4,0 -0.7,0 -1.1,0 0,0.2 0,0.4 0,0.6 -0.4,0 -0.7,0 -1.1,0 0,0.2 0,0.4 0,0.5 -0.7,0 -1.4,0 -2.2,0 0,0.2 0,0.4 0,0.6 -2.2,0 -4.4,0 -6.6,0 0,-0.2 0,-0.3 0,-0.5 -0.5,0 -1,0 -1.6,0 z m 6.7,-10.6 c 0.4,0 0.7,0 1.1,0 0,-0.2 0,-0.4 0,-0.6 0.2,0 0.4,0 0.5,0 0,-0.2 0,-0.4 0,-0.5 0.2,0 0.4,0 0.5,0 0,-0.9 0,-1.8 0,-2.8 -0.2,0 -0.4,0 -0.5,0 0,-0.2 0,-0.4 0,-0.5 -0.2,0 -0.4,0 -0.6,0 0,-0.2 0,-0.4 0,-0.5 -0.2,0 -0.4,0 -0.5,0 0,-0.2 0,-0.4 0,-0.5 -1.1,0 -2.2,0 -3.3,0 0,0.2 0,0.3 0,0.5 -0.4,0 -0.7,0 -1.1,0 0,0.9 0,1.9 0,2.8 -0.2,0 -0.4,0 -0.5,0 0,0.4 0,0.7 0,1.1 0.2,0 0.4,0 0.5,0 0,0.2 0,0.4 0,0.5 0.2,0 0.4,0 0.5,0 0,0.2 0,0.4 0,0.6 0.4,0 0.7,0 1.1,0 0,0.2 0,0.4 0,0.5 0.7,0 1.5,0 2.2,0 0.1,-0.2 0.1,-0.4 0.1,-0.6 z m -2.2,5 c 0,0.6 0,1.1 0,1.7 0.4,0 0.7,0 1.1,0 0,0.2 0,0.4 0,0.5 0.6,0 1.1,0 1.6,0 0,-0.2 0,-0.3 0,-0.6 0.6,0 1.1,0 1.7,0 0,-0.2 0,-0.4 0,-0.5 0.2,0 0.4,0 0.5,0 0,-0.2 0,-0.4 0,-0.5 0.2,0 0.4,0 0.5,0 0,-0.2 0,-0.4 0,-0.5 0.2,0 0.4,0 0.5,0 0,-0.4 0,-0.7 0,-1.1 -0.2,0 -0.3,0 -0.5,0 0,-0.2 0,-0.4 0,-0.5 -1.1,0 -2.2,0 -3.3,0 0,0.2 0,0.3 0,0.5 -0.4,0 -0.7,0 -1.1,0 0,0.2 0,0.4 0,0.6 -0.2,0 -0.4,0 -0.5,0 0,0.2 0,0.4 0,0.5 -0.2,-0.1 -0.4,-0.1 -0.5,-0.1 z"
       id="path16"
       style="fill:#000000"
       inkscape:connector-curvature="0" /><path
       class="st1"
       d="m 288.3,256.5 c 0,-0.4 0,-0.7 0,-1.1 0.5,0 1.1,0 1.6,0 0,0.3 0,0.7 0,1.1 -0.5,0 -1,0 -1.6,0 z"
       id="path18"
       style="fill:#000000"
       inkscape:connector-curvature="0" /></g><g
     id="g54"
     style="fill:#000000"
     transform="matrix(42.811468,0,0,42.811468,-11815.965,-10587.309)"><path
       class="st1"
       d="m 276.7,276.3 v -1.4 c -0.1,0 -0.1,0 -0.2,-0.1 0,0 -0.1,-0.1 -0.1,-0.1 0,-0.1 0,-0.1 0.1,-0.1 0,0 0.1,-0.1 0.2,-0.1 h 0.8 c 0.1,0 0.2,0 0.3,0.1 0.1,0 0.2,0.1 0.3,0.2 0.1,0.1 0.1,0.1 0.2,0.2 0.1,0.1 0.1,0.2 0.1,0.3 0,0.1 0,0.2 0,0.3 v 0.2 c 0,0.2 0,0.3 -0.1,0.4 -0.1,0.1 -0.1,0.2 -0.2,0.3 -0.1,0.1 -0.2,0.1 -0.2,0.2 -0.1,0.1 -0.3,0.1 -0.5,0.1 h -0.7 c -0.1,0 -0.1,0 -0.2,-0.1 0,0 -0.1,-0.1 -0.1,-0.1 0,-0.1 0,-0.1 0.1,-0.1 0,-0.2 0.1,-0.2 0.2,-0.2 z m 0.3,0 h 0.4 c 0.1,0 0.3,0 0.3,-0.1 0.1,-0.1 0.2,-0.1 0.2,-0.2 0,-0.1 0.1,-0.2 0.1,-0.3 v -0.2 c 0,-0.1 0,-0.2 -0.1,-0.3 -0.1,-0.1 -0.1,-0.2 -0.2,-0.3 -0.1,-0.1 -0.2,-0.1 -0.3,-0.1 H 277 Z"
       id="path22"
       style="fill:#000000"
       inkscape:connector-curvature="0" /><path
       class="st1"
       d="m 280.5,274.9 v 1 c 0,0.2 -0.1,0.4 -0.2,0.6 -0.2,0.2 -0.4,0.2 -0.6,0.2 -0.1,0 -0.2,0 -0.3,-0.1 -0.1,0 -0.2,-0.1 -0.3,-0.2 -0.1,-0.1 -0.1,-0.2 -0.2,-0.2 0,-0.1 -0.1,-0.2 -0.1,-0.3 v -1 c -0.1,0 -0.1,0 -0.2,-0.1 0,0 -0.1,-0.1 -0.1,-0.1 0,-0.1 0,-0.1 0.1,-0.1 0,0 0.1,0 0.2,0 h 0.5 c 0.1,0 0.1,0 0.2,0.1 0,0 0.1,0.1 0.1,0.1 0,0.1 0,0.1 -0.1,0.1 0,0 -0.1,0.1 -0.2,0.1 h -0.1 v 1.1 c 0,0.1 0,0.2 0.1,0.3 0.1,0.1 0.2,0.1 0.3,0.1 0.1,0 0.2,0 0.2,-0.1 0.1,0 0.1,-0.1 0.2,-0.2 0,0 0,-0.1 0,-0.2 v -1.1 0 c -0.1,0 -0.1,0 -0.2,-0.1 0,0 -0.1,-0.1 -0.1,-0.1 0,-0.1 0,-0.1 0.1,-0.1 0,0 0.1,-0.1 0.2,-0.1 h 0.5 c 0.1,0 0.1,0 0.2,0 0,0 0.1,0.1 0.1,0.1 0,0.1 0,0.1 -0.1,0.1 -0.1,0.2 -0.1,0.2 -0.2,0.2 z"
       id="path24"
       style="fill:#000000"
       inkscape:connector-curvature="0" /><path
       class="st1"
       d="m 282.4,274.6 c 0,0 0,0 0,0 0.1,-0.1 0.1,-0.1 0.2,-0.1 0.1,0 0.1,0 0.1,0.1 0,0 0.1,0.1 0.1,0.2 v 0.3 c 0,0.1 0,0.1 -0.1,0.2 0,0 -0.1,0.1 -0.1,0.1 0,0 -0.1,0 -0.1,0 0,0 -0.1,-0.1 -0.1,-0.2 0,0 0,-0.1 0,-0.1 0,-0.1 -0.1,-0.1 -0.2,-0.1 -0.1,0 -0.2,0 -0.3,0 -0.1,0 -0.2,0 -0.3,0.1 -0.1,0 -0.2,0.1 -0.2,0.2 -0.1,0.1 -0.1,0.2 -0.1,0.4 v 0.2 c 0,0.2 0.1,0.3 0.2,0.4 0.1,0.1 0.3,0.2 0.5,0.2 0.1,0 0.2,0 0.3,-0.1 0.1,0 0.1,-0.1 0.2,-0.1 0,0 0.1,-0.1 0.1,-0.1 0,0 0,0 0.1,0 0,0 0.1,0 0.1,0.1 0,0.1 0.1,0.1 0.1,0.1 0,0 0,0.1 -0.1,0.2 -0.1,0.1 -0.2,0.1 -0.3,0.2 -0.2,0.1 -0.3,0.1 -0.5,0.1 -0.2,0 -0.4,0 -0.6,-0.1 -0.1,-0.1 -0.3,-0.2 -0.4,-0.3 -0.1,-0.2 -0.1,-0.3 -0.1,-0.5 v -0.2 c 0,-0.2 0,-0.4 0.1,-0.5 0.1,-0.2 0.2,-0.3 0.4,-0.4 0.2,-0.1 0.3,-0.1 0.5,-0.1 0.1,0 0.2,0 0.3,0 0,-0.3 0.1,-0.2 0.2,-0.2 z"
       id="path26"
       style="fill:#000000"
       inkscape:connector-curvature="0" /><path
       class="st1"
       d="m 283.6,275.9 v 0.4 h 0.1 c 0.1,0 0.1,0 0.2,0.1 0,0 0.1,0.1 0.1,0.1 0,0.1 0,0.1 -0.1,0.1 0,0 -0.1,0.1 -0.2,0.1 h -0.5 c -0.1,0 -0.1,0 -0.2,-0.1 0,0 -0.1,-0.1 -0.1,-0.1 0,-0.1 0,-0.1 0.1,-0.1 0,0 0.1,-0.1 0.2,-0.1 h 0.1 v -1.4 h -0.1 c -0.1,0 -0.1,0 -0.2,-0.1 0,0 -0.1,-0.1 -0.1,-0.1 0,-0.1 0,-0.1 0.1,-0.1 0,0 0.1,-0.1 0.2,-0.1 h 0.5 c 0.1,0 0.1,0 0.2,0 0,0 0.1,0.1 0.1,0.1 0,0.1 0,0.1 -0.1,0.1 0,0 -0.1,0.1 -0.2,0.1 h -0.1 v 0.5 l 0.6,-0.6 c 0,0 -0.1,-0.1 -0.1,-0.1 0,0 0,-0.1 0,-0.1 0,-0.1 0,-0.1 0.1,-0.1 0,0 0.1,-0.1 0.2,-0.1 h 0.4 c 0.1,0 0.1,0 0.2,0 0,0 0.1,0.1 0.1,0.1 0,0.1 0,0.1 -0.1,0.1 0,0 -0.1,0.1 -0.2,0.1 l -0.6,0.6 c 0.1,0.1 0.2,0.2 0.3,0.3 0.1,0.1 0.2,0.3 0.3,0.5 h 0.1 c 0.1,0 0.1,0 0.2,0.1 0,0 0.1,0.1 0.1,0.1 0,0.1 0,0.1 -0.1,0.1 0,0 -0.1,0.1 -0.2,0.1 h -0.3 c -0.1,-0.2 -0.2,-0.4 -0.2,-0.5 -0.1,-0.1 -0.1,-0.2 -0.2,-0.3 -0.1,-0.1 -0.1,-0.1 -0.2,-0.1 z"
       id="path28"
       style="fill:#000000"
       inkscape:connector-curvature="0" /><path
       class="st1"
       d="m 295,274.9 v 1.4 h 0.2 c 0.1,0 0.1,0 0.2,0.1 0,0 0.1,0.1 0.1,0.1 0,0.1 0,0.1 -0.1,0.1 0,0 -0.1,0.1 -0.2,0.1 h -0.8 c -0.1,0 -0.1,0 -0.2,-0.1 0,0 -0.1,-0.1 -0.1,-0.1 0,-0.1 0,-0.1 0.1,-0.1 0,0 0.1,-0.1 0.2,-0.1 h 0.2 v -1.4 h -0.4 v 0.3 c 0,0.1 0,0.1 -0.1,0.2 0,0 -0.1,0.1 -0.1,0.1 -0.1,0 -0.1,0 -0.1,-0.1 0,0 -0.1,-0.1 -0.1,-0.2 v -0.7 h 1.9 v 0.7 c 0,0.1 0,0.1 0,0.2 0,0 -0.1,0.1 -0.1,0.1 -0.1,0 -0.1,0 -0.1,-0.1 0,0 -0.1,-0.1 -0.1,-0.2 v -0.3 z"
       id="path30"
       style="fill:#000000"
       inkscape:connector-curvature="0" /><path
       class="st1"
       d="m 297.5,276.1 h -0.9 l -0.1,0.2 h 0.1 c 0.1,0 0.1,0 0.2,0.1 0,0 0.1,0.1 0.1,0.1 0,0.1 0,0.1 -0.1,0.1 0,0 -0.1,0.1 -0.2,0.1 h -0.5 c -0.1,0 -0.1,0 -0.2,-0.1 0,0 -0.1,-0.1 -0.1,-0.1 0,-0.1 0,-0.1 0.1,-0.1 0,0 0.1,-0.1 0.2,0 l 0.6,-1.4 h -0.2 c -0.1,0 -0.1,0 -0.2,-0.1 0,0 -0.1,-0.1 -0.1,-0.1 0,-0.1 0,-0.1 0.1,-0.1 0,0 0.1,-0.1 0.2,-0.1 h 0.8 l 0.7,1.8 c 0.1,0 0.1,0 0.2,0 0.1,0 0.1,0.1 0.1,0.2 0,0.1 0,0.1 -0.1,0.1 0,0 -0.1,0.1 -0.2,0.1 h -0.5 c -0.1,0 -0.1,0 -0.2,-0.1 0,0 -0.1,-0.1 -0.1,-0.1 0,-0.1 0,-0.1 0.1,-0.1 0,0 0.1,-0.1 0.2,-0.1 h 0.1 z m -0.2,-0.4 -0.3,-0.7 -0.3,0.7 z"
       id="path32"
       style="fill:#000000"
       inkscape:connector-curvature="0" /><path
       class="st1"
       d="m 299,275.9 v 0.4 h 0.4 c 0.1,0 0.1,0 0.2,0.1 0,0 0.1,0.1 0.1,0.1 0,0.1 0,0.1 -0.1,0.1 0,0 -0.1,0.1 -0.2,0.1 h -0.8 c -0.1,0 -0.1,0 -0.2,-0.1 0,0 -0.1,-0.1 -0.1,-0.1 0,-0.1 0,-0.1 0.1,-0.1 0,0 0.1,-0.1 0.2,-0.1 h 0.1 v -1.4 h -0.1 c -0.1,0 -0.1,0 -0.2,-0.1 0,0 -0.1,-0.1 -0.1,-0.1 0,-0.1 0,-0.1 0.1,-0.1 0,0 0.1,-0.1 0.2,-0.1 h 0.8 c 0.2,0 0.4,0.1 0.6,0.2 0.1,0.1 0.2,0.3 0.2,0.5 0,0.1 0,0.2 -0.1,0.3 0,0.1 -0.1,0.1 -0.2,0.2 -0.1,0.1 -0.2,0.1 -0.3,0.2 -0.1,0 -0.2,0.1 -0.4,0.1 H 299 Z m 0,-0.3 h 0.3 c 0.2,0 0.3,0 0.4,-0.1 0.1,-0.1 0.1,-0.2 0.1,-0.3 0,-0.1 0,-0.2 -0.1,-0.2 -0.1,-0.1 -0.2,-0.1 -0.3,-0.1 H 299 Z"
       id="path34"
       style="fill:#000000"
       inkscape:connector-curvature="0" /><path
       class="st1"
       d="m 301,275.8 v 0.5 h 0.9 v -0.2 c 0,-0.1 0,-0.1 0.1,-0.2 0,0 0.1,-0.1 0.1,-0.1 0.1,0 0.1,0 0.1,0.1 0,0 0.1,0.1 0.1,0.2 v 0.6 h -1.7 c -0.1,0 -0.1,0 -0.2,-0.1 0,0 -0.1,-0.1 -0.1,-0.1 0,-0.1 0,-0.1 0.1,-0.1 0,0 0.1,-0.1 0.2,-0.1 h 0.1 v -1.4 h -0.1 c -0.1,0 -0.1,0 -0.2,-0.1 0,0 -0.1,-0.1 -0.1,-0.1 0,-0.1 0,-0.1 0.1,-0.1 0,0 0.1,-0.1 0.2,-0.1 h 1.6 v 0.6 c 0,0.1 0,0.1 0,0.2 0,0 -0.1,0.1 -0.1,0.1 -0.1,0 -0.1,0 -0.1,-0.1 0,0 -0.1,-0.1 -0.1,-0.2 v -0.2 H 301 v 0.5 h 0.3 c 0,-0.1 0,-0.2 0,-0.2 0,-0.1 0.1,-0.1 0.2,-0.1 0.1,0 0.1,0 0.1,0.1 0,0 0.1,0.1 0.1,0.2 v 0.4 c 0,0.1 0,0.1 0,0.2 0,0.1 -0.1,0.1 -0.2,0.1 -0.1,0 -0.1,0 -0.2,-0.1 0,0 0,-0.1 0,-0.2 z"
       id="path36"
       style="fill:#000000"
       inkscape:connector-curvature="0" /><path
       class="st1"
       d="m 277.7,279.3 h -0.9 l -0.1,0.2 h 0.1 c 0.1,0 0.1,0 0.2,0.1 0,0 0.1,0.1 0.1,0.1 0,0.1 0,0.1 -0.1,0.1 0,0 -0.1,0.1 -0.2,0.1 h -0.5 c -0.1,0 -0.1,0 -0.2,-0.1 0,0 -0.1,-0.1 -0.1,-0.1 0,-0.1 0,-0.1 0.1,-0.1 0,0 0.1,-0.1 0.2,0 l 0.6,-1.4 h -0.2 c -0.1,0 -0.1,0 -0.2,-0.1 0,0 -0.1,-0.1 -0.1,-0.1 0,-0.1 0,-0.1 0.1,-0.1 0,0 0.1,-0.1 0.2,-0.1 h 0.8 l 0.7,1.8 c 0.1,0 0.1,0 0.2,0 0.1,0 0.1,0.1 0.1,0.2 0,0.1 0,0.1 -0.1,0.1 0,0 -0.1,0.1 -0.2,0.1 h -0.5 c -0.1,0 -0.1,0 -0.2,-0.1 0,0 -0.1,-0.1 -0.1,-0.1 0,-0.1 0,-0.1 0.1,-0.1 0,0 0.1,-0.1 0.2,-0.1 h 0.1 z m -0.1,-0.4 -0.3,-0.7 -0.3,0.7 z"
       id="path38"
       style="fill:#000000"
       inkscape:connector-curvature="0" /><path
       class="st1"
       d="m 280.5,279.1 v 0.4 h 0.4 c 0.1,0 0.1,0 0.2,0.1 0,0 0.1,0.1 0.1,0.1 0,0.1 0,0.1 -0.1,0.1 0,0 -0.1,0.1 -0.2,0.1 h -0.8 c -0.1,0 -0.1,0 -0.2,-0.1 0,0 -0.1,-0.1 -0.1,-0.1 0,-0.1 0,-0.1 0.1,-0.1 0,0 0.1,-0.1 0.2,-0.1 h 0.1 v -1.4 h -0.1 c -0.1,0 -0.1,0 -0.2,-0.1 0,0 -0.1,-0.1 -0.1,-0.1 0,-0.1 0,-0.1 0.1,-0.1 0,0 0.1,-0.1 0.2,-0.1 h 0.8 c 0.2,0 0.4,0.1 0.6,0.2 0.1,0.1 0.2,0.3 0.2,0.5 0,0.1 0,0.2 -0.1,0.3 0,0.1 -0.1,0.1 -0.2,0.2 -0.1,0.1 -0.2,0.1 -0.3,0.2 -0.1,0 -0.2,0.1 -0.4,0.1 h -0.2 z m 0,-0.3 h 0.3 c 0.2,0 0.3,0 0.4,-0.1 0.1,-0.1 0.1,-0.2 0.1,-0.3 0,-0.1 0,-0.2 -0.1,-0.2 -0.1,-0.1 -0.2,-0.1 -0.3,-0.1 h -0.4 z"
       id="path40"
       style="fill:#000000"
       inkscape:connector-curvature="0" /><path
       class="st1"
       d="m 284,279.1 v 0.4 h 0.4 c 0.1,0 0.1,0 0.2,0.1 0,0 0.1,0.1 0.1,0.1 0,0.1 0,0.1 -0.1,0.1 0,0 -0.1,0.1 -0.2,0.1 h -0.8 c -0.1,0 -0.1,0 -0.2,-0.1 0,0 -0.1,-0.1 -0.1,-0.1 0,-0.1 0,-0.1 0.1,-0.1 0,0 0.1,-0.1 0.2,-0.1 h 0.1 v -1.4 h -0.1 c -0.1,0 -0.1,0 -0.2,-0.1 0,0 -0.1,-0.1 -0.1,-0.1 0,-0.1 0,-0.1 0.1,-0.1 0,0 0.1,-0.1 0.2,-0.1 h 0.8 c 0.2,0 0.4,0.1 0.6,0.2 0.1,0.1 0.2,0.3 0.2,0.5 0,0.1 0,0.2 -0.1,0.3 0,0.1 -0.1,0.1 -0.2,0.2 -0.1,0.1 -0.2,0.1 -0.3,0.2 -0.1,0 -0.2,0.1 -0.4,0.1 H 284 Z m 0,-0.3 h 0.3 c 0.2,0 0.3,0 0.4,-0.1 0.1,-0.1 0.1,-0.2 0.1,-0.3 0,-0.1 0,-0.2 -0.1,-0.2 -0.1,-0.1 -0.2,-0.1 -0.3,-0.1 H 284 Z"
       id="path42"
       style="fill:#000000"
       inkscape:connector-curvature="0" /><path
       class="st1"
       d="m 287.3,279 v 0.5 h 0.1 c 0.1,0 0.1,0 0.2,0.1 0,0 0.1,0.1 0.1,0.1 0,0.1 0,0.1 -0.1,0.1 0,0 -0.1,0.1 -0.2,0.1 h -0.5 c -0.1,0 -0.1,0 -0.2,-0.1 0,0 -0.1,-0.1 -0.1,-0.1 0,-0.1 0,-0.1 0.1,-0.1 0,0 0.1,-0.1 0.2,-0.1 h 0.1 v -1.4 h -0.1 c -0.1,0 -0.1,0 -0.2,-0.1 0,0 -0.1,-0.1 -0.1,-0.1 0,-0.1 0,-0.1 0.1,-0.1 0,0 0.1,-0.1 0.2,-0.1 h 0.8 c 0.3,0 0.5,0.1 0.6,0.2 0.1,0.1 0.2,0.3 0.2,0.5 0,0.1 0,0.2 -0.1,0.3 -0.1,0.1 -0.2,0.2 -0.3,0.2 0.1,0.1 0.2,0.2 0.2,0.3 0.1,0.1 0.1,0.2 0.2,0.3 0.1,0 0.2,0 0.2,0 0.1,0 0.1,0.1 0.1,0.2 0,0.1 0,0.1 -0.1,0.1 0,0 -0.1,0.1 -0.2,0.1 h -0.2 c -0.3,-0.5 -0.5,-0.7 -0.7,-0.8 h -0.3 z m 0,-0.3 h 0.3 c 0.1,0 0.2,0 0.3,0 0.1,0 0.2,-0.1 0.2,-0.1 0,0 0.1,-0.1 0.1,-0.1 0,-0.1 0,-0.1 -0.1,-0.2 -0.1,-0.1 -0.2,-0.1 -0.3,-0.1 h -0.4 v 0.5 z"
       id="path44"
       style="fill:#000000"
       inkscape:connector-curvature="0" /><path
       class="st1"
       d="m 292.2,278.8 c 0,0.3 -0.1,0.6 -0.3,0.8 -0.2,0.2 -0.4,0.3 -0.7,0.3 -0.2,0 -0.5,-0.1 -0.7,-0.3 -0.2,-0.2 -0.4,-0.5 -0.4,-0.9 0,-0.4 0.1,-0.6 0.4,-0.9 0.2,-0.2 0.4,-0.3 0.7,-0.3 0.3,0 0.5,0.1 0.7,0.3 0.2,0.4 0.3,0.7 0.3,1 z m -0.4,0 c 0,-0.2 -0.1,-0.4 -0.2,-0.5 -0.1,-0.1 -0.3,-0.2 -0.5,-0.2 -0.2,0 -0.3,0.1 -0.5,0.2 -0.1,0.1 -0.2,0.3 -0.2,0.5 0,0.2 0.1,0.4 0.2,0.5 0.1,0.1 0.3,0.2 0.5,0.2 0.2,0 0.3,-0.1 0.5,-0.2 0.1,-0.1 0.2,-0.3 0.2,-0.5 z"
       id="path46"
       style="fill:#000000"
       inkscape:connector-curvature="0" /><path
       class="st1"
       d="m 294.6,279.3 0.5,-1.3 H 295 c -0.1,0 -0.1,0 -0.2,-0.1 0,0 -0.1,-0.1 -0.1,-0.1 0,-0.1 0,-0.1 0.1,-0.1 0,0 0.1,-0.1 0.2,-0.1 h 0.5 c 0.1,0 0.1,0 0.2,0 0,0 0.1,0.1 0.1,0.1 0,0.1 0,0.1 -0.1,0.2 0,0 -0.1,0 -0.2,0 l -0.7,1.8 h -0.3 l -0.7,-1.8 c -0.1,0 -0.1,0 -0.2,0 -0.1,0 -0.1,-0.1 -0.1,-0.2 0,-0.1 0,-0.1 0.1,-0.1 0,0 0.1,-0.1 0.2,-0.1 h 0.5 c 0.1,0 0.1,0 0.2,0 0,0 0.1,0.1 0.1,0.1 0,0.1 0,0.1 -0.1,0.1 0,0 -0.1,0.1 -0.2,0.1 h -0.1 z"
       id="path48"
       style="fill:#000000"
       inkscape:connector-curvature="0" /><path
       class="st1"
       d="m 297.7,279 v 0.5 h 0.9 v -0.2 c 0,-0.1 0,-0.1 0.1,-0.2 0,0 0.1,-0.1 0.1,-0.1 0.1,0 0.1,0 0.1,0.1 0,0 0.1,0.1 0.1,0.2 v 0.6 h -1.7 c -0.1,0 -0.1,0 -0.2,-0.1 0,0 -0.1,-0.1 -0.1,-0.1 0,-0.1 0,-0.1 0.1,-0.1 0,0 0.1,-0.1 0.2,-0.1 h 0.1 v -1.4 h -0.1 c -0.1,0 -0.1,0 -0.2,-0.1 0,0 -0.1,-0.1 -0.1,-0.1 0,-0.1 0,-0.1 0.1,-0.1 0,0 0.1,-0.1 0.2,-0.1 h 1.6 v 0.6 c 0,0.1 0,0.1 0,0.2 0,0 -0.1,0.1 -0.1,0.1 0,0 -0.1,0 -0.1,-0.1 0,0 -0.1,-0.1 -0.1,-0.2 v -0.2 h -0.8 v 0.5 h 0.3 c 0,-0.1 0,-0.2 0,-0.2 0,-0.1 0.1,-0.1 0.2,-0.1 0.1,0 0.1,0 0.1,0.1 0,0 0.1,0.1 0.1,0.2 v 0.4 c 0,0.1 0,0.1 0,0.2 0,0.1 -0.1,0.1 -0.2,0.1 -0.1,0 -0.1,0 -0.2,-0.1 0,0 0,-0.1 0,-0.2 z"
       id="path50"
       style="fill:#000000"
       inkscape:connector-curvature="0" /><path
       class="st1"
       d="m 300.8,279.5 v -1.4 c -0.1,0 -0.1,0 -0.2,-0.1 0,0 -0.1,-0.1 -0.1,-0.1 0,-0.1 0,-0.1 0.1,-0.1 0,0 0.1,-0.1 0.2,-0.1 h 0.8 c 0.1,0 0.2,0 0.3,0.1 0.1,0 0.2,0.1 0.3,0.2 0.1,0.1 0.1,0.1 0.2,0.2 0.1,0.1 0.1,0.2 0.1,0.3 0,0.1 0,0.2 0,0.3 v 0.2 c 0,0.2 0,0.3 -0.1,0.4 -0.1,0.1 -0.1,0.2 -0.2,0.3 -0.1,0.1 -0.2,0.1 -0.2,0.2 -0.1,0.1 -0.3,0.1 -0.5,0.1 h -0.7 c -0.1,0 -0.1,0 -0.2,-0.1 0,0 -0.1,-0.1 -0.1,-0.1 0,-0.1 0,-0.1 0.1,-0.1 0,-0.2 0.1,-0.2 0.2,-0.2 z m 0.3,0 h 0.4 c 0.1,0 0.3,0 0.3,-0.1 0.1,-0.1 0.2,-0.1 0.2,-0.2 0,-0.1 0.1,-0.2 0.1,-0.3 v -0.2 c 0,-0.1 0,-0.2 -0.1,-0.3 -0.1,-0.1 -0.1,-0.2 -0.2,-0.3 -0.1,-0.1 -0.2,-0.1 -0.3,-0.1 h -0.4 z"
       id="path52"
       style="fill:#000000"
       inkscape:connector-curvature="0" /></g></svg>