<?xml version="1.0" encoding="utf-8"?>
<!-- Generator: Adobe Illustrator 19.1.0, SVG Export Plug-In . SVG Version: 6.00 Build 0)  -->
<svg version="1.1" id="Layer_1" xmlns="http://www.w3.org/2000/svg" xmlns:xlink="http://www.w3.org/1999/xlink" x="0px" y="0px"
	 viewBox="0 0 595.3 841.9" style="enable-background:new 0 0 595.3 841.9;" xml:space="preserve">
<style type="text/css">
	.st0{fill:#FFFFFF;}
	.st1{fill:#110505;}
</style>
<rect x="275" y="246.5" class="st0" width="29.3" height="35.5"/>
<g>
	<path class="st1" d="M283.3,269.9c0-0.2,0-0.4,0-0.5c-0.4,0-0.7,0-1.1,0c0-0.2,0-0.4,0-0.6c-0.2,0-0.3,0-0.5,0c0-0.2,0-0.4,0-0.5
		c-0.2,0-0.4,0-0.6,0c0-0.2,0-0.3,0-0.5c-0.2,0-0.4,0-0.5,0c0-1.5,0-2.9,0-4.4c0.2,0,0.3,0,0.5,0c0-0.4,0-0.7,0-1.1
		c0.2,0,0.4,0,0.6,0c0-0.2,0-0.3,0-0.5c0.4,0,0.7,0,1.1,0c0-0.2,0-0.4,0-0.6c0.2,0,0.3,0,0.5,0c0-0.2,0-0.4,0-0.6c0.4,0,0.7,0,1.1,0
		c0-0.2,0-0.4,0-0.5c0.2,0,0.4,0,0.5,0c0-0.4,0-0.7,0-1.1c-0.2,0-0.3,0-0.5,0c0-0.4,0-0.7,0-1.1c-0.2,0-0.4,0-0.6,0
		c0-0.4,0-0.7,0-1.1c-0.2,0-0.4,0-0.6,0c0-0.4,0-0.7,0-1.1c-0.2,0-0.4,0-0.5,0c0-0.4,0-0.7,0-1.1c0.7,0,1.4,0,2.2,0
		c0-0.2,0-0.4,0-0.5c0.2,0,0.4,0,0.5,0c0-0.2,0-0.4,0-0.6c0.4,0,0.7,0,1.1,0c0-0.2,0-0.4,0-0.5c1.5,0,2.9,0,4.4,0c0,0.2,0,0.3,0,0.5
		c0.4,0,0.7,0,1.1,0c0,0.2,0,0.4,0,0.6c0.2,0,0.3,0,0.5,0c0,0.2,0,0.4,0,0.5c0.2,0,0.4,0,0.6,0c0,0.5,0,1.1,0,1.6c0.2,0,0.4,0,0.5,0
		c0,0.5,0,1.1,0,1.6c-0.2,0-0.3,0-0.5,0c0,0.4,0,0.7,0,1.1c-0.2,0-0.4,0-0.6,0c0,0.2,0,0.3,0,0.5c-0.2,0-0.4,0-0.5,0
		c0,0.2,0,0.4,0,0.6c-0.2,0-0.3,0-0.5,0c0,0.2,0,0.4,0,0.5c-0.2,0-0.4,0-0.6,0c0,0.2,0,0.3,0,0.5c-0.2,0-0.4,0-0.5,0
		c0,0.2,0,0.4,0,0.6c0.3,0,0.7,0,1.1,0c0,0.2,0,0.4,0,0.6c0.7,0,1.5,0,2.2,0c0,0.2,0,0.4,0,0.5c0.2,0,0.4,0,0.5,0c0,1.1,0,2.2,0,3.3
		c-0.2,0-0.3,0-0.5,0c0,0.2,0,0.4,0,0.6c-0.4,0-0.7,0-1.1,0c0,0.2,0,0.4,0,0.5c-0.7,0-1.5,0-2.2,0c0,0.2,0,0.4,0,0.6
		c-0.4,0-0.7,0-1.1,0c0-0.2,0-0.3,0-0.5c-0.5,0-1.1,0-1.6,0c0-0.2,0-0.4,0-0.5c-0.2,0-0.4,0-0.5,0c0-0.2,0-0.4,0-0.6
		c-0.2,0-0.3,0-0.5,0c0-0.9,0-1.8,0-2.8c0.2,0,0.3,0,0.5,0c0-0.2,0-0.3,0-0.5c0.4,0,0.7,0,1.1,0c0-0.2,0-0.4,0-0.6
		c0.5,0,1.1,0,1.6,0c0-0.2,0-0.4,0-0.6c-1.1,0-2.2,0-3.3,0c0-0.2,0-0.4,0-0.5c-0.7,0-1.5,0-2.2,0c0,0.2,0,0.3,0,0.5
		c-0.2,0-0.3,0-0.5,0c0,0.2,0,0.4,0,0.5c-0.2,0-0.4,0-0.6,0c0,0.5,0,1.1,0,1.6c-0.2,0-0.4,0-0.5,0c0,0.4,0,0.7,0,1.1
		c0.2,0,0.3,0,0.5,0c0,0.4,0,0.7,0,1.1c0.2,0,0.4,0,0.6,0c0,0.2,0,0.3,0,0.5c0.2,0,0.4,0,0.5,0c0,0.2,0,0.4,0,0.6c0.2,0,0.3,0,0.5,0
		c0,0.2,0,0.3,0,0.5c0.4,0,0.7,0,1.1,0c0,0.2,0,0.4,0,0.5c0.5,0,1.1,0,1.6,0c0,0.2,0,0.4,0,0.6c0.9,0,1.8,0,2.8,0c0-0.2,0-0.3,0-0.5
		c0.7,0,1.5,0,2.2,0c0-0.2,0-0.4,0-0.5c0.4,0,0.7,0,1.1,0c0-0.2,0-0.4,0-0.6c0.2,0,0.3,0,0.5,0c0-0.2,0-0.3,0-0.5c0.2,0,0.4,0,0.6,0
		c0-0.4,0-0.7,0-1.1c0.2,0,0.4,0,0.5,0c0-0.9,0-1.8,0-2.8c-0.2,0-0.3,0-0.5,0c0-0.2,0-0.3,0-0.5c-0.2,0-0.3,0-0.5,0
		c0-0.2,0-0.3,0-0.5c-0.2,0-0.3,0-0.5,0c0-0.4,0-0.7,0-1.1c0.4,0,0.7,0,1.1,0c0-0.2,0-0.4,0-0.5c0.2,0,0.4,0,0.5,0
		c0-0.2,0-0.3,0-0.5c0.5,0,1.1,0,1.6,0c0,0.2,0,0.3,0,0.5c0.2,0,0.3,0,0.5,0c0,0.2,0,0.3,0,0.5c0.2,0,0.3,0,0.5,0c0,0.9,0,1.8,0,2.8
		c-0.2,0-0.3,0-0.5,0c0,0.7,0,1.5,0,2.2c-0.2,0-0.4,0-0.5,0c0,0.5,0,1.1,0,1.6c-0.2,0-0.4,0-0.6,0c0,0.2,0,0.3,0,0.5
		c-0.2,0-0.3,0-0.5,0c0,0.4,0,0.7,0,1.1c-0.4,0-0.7,0-1.1,0c0,0.2,0,0.4,0,0.6c-0.4,0-0.7,0-1.1,0c0,0.2,0,0.4,0,0.5
		c-0.7,0-1.4,0-2.2,0c0,0.2,0,0.4,0,0.6c-2.2,0-4.4,0-6.6,0c0-0.2,0-0.3,0-0.5C284.4,269.9,283.9,269.9,283.3,269.9z M290,259.3
		c0.4,0,0.7,0,1.1,0c0-0.2,0-0.4,0-0.6c0.2,0,0.4,0,0.5,0c0-0.2,0-0.4,0-0.5c0.2,0,0.4,0,0.5,0c0-0.9,0-1.8,0-2.8
		c-0.2,0-0.4,0-0.5,0c0-0.2,0-0.4,0-0.5c-0.2,0-0.4,0-0.6,0c0-0.2,0-0.4,0-0.5c-0.2,0-0.4,0-0.5,0c0-0.2,0-0.4,0-0.5
		c-1.1,0-2.2,0-3.3,0c0,0.2,0,0.3,0,0.5c-0.4,0-0.7,0-1.1,0c0,0.9,0,1.9,0,2.8c-0.2,0-0.4,0-0.5,0c0,0.4,0,0.7,0,1.1
		c0.2,0,0.4,0,0.5,0c0,0.2,0,0.4,0,0.5c0.2,0,0.4,0,0.5,0c0,0.2,0,0.4,0,0.6c0.4,0,0.7,0,1.1,0c0,0.2,0,0.4,0,0.5c0.7,0,1.5,0,2.2,0
		C290,259.7,290,259.5,290,259.3z M287.8,264.3c0,0.6,0,1.1,0,1.7c0.4,0,0.7,0,1.1,0c0,0.2,0,0.4,0,0.5c0.6,0,1.1,0,1.6,0
		c0-0.2,0-0.3,0-0.6c0.6,0,1.1,0,1.7,0c0-0.2,0-0.4,0-0.5c0.2,0,0.4,0,0.5,0c0-0.2,0-0.4,0-0.5c0.2,0,0.4,0,0.5,0c0-0.2,0-0.4,0-0.5
		c0.2,0,0.4,0,0.5,0c0-0.4,0-0.7,0-1.1c-0.2,0-0.3,0-0.5,0c0-0.2,0-0.4,0-0.5c-1.1,0-2.2,0-3.3,0c0,0.2,0,0.3,0,0.5
		c-0.4,0-0.7,0-1.1,0c0,0.2,0,0.4,0,0.6c-0.2,0-0.4,0-0.5,0c0,0.2,0,0.4,0,0.5C288.1,264.3,287.9,264.3,287.8,264.3z"/>
	<path class="st1" d="M288.3,256.5c0-0.4,0-0.7,0-1.1c0.5,0,1.1,0,1.6,0c0,0.3,0,0.7,0,1.1C289.4,256.5,288.9,256.5,288.3,256.5z"/>
</g>
<g>
	<path d="M276.7,276.3v-1.4c-0.1,0-0.1,0-0.2-0.1c0,0-0.1-0.1-0.1-0.1c0-0.1,0-0.1,0.1-0.1c0,0,0.1-0.1,0.2-0.1l0.8,0
		c0.1,0,0.2,0,0.3,0.1c0.1,0,0.2,0.1,0.3,0.2c0.1,0.1,0.1,0.1,0.2,0.2c0.1,0.1,0.1,0.2,0.1,0.3s0,0.2,0,0.3v0.2c0,0.2,0,0.3-0.1,0.4
		s-0.1,0.2-0.2,0.3c-0.1,0.1-0.2,0.1-0.2,0.2c-0.1,0.1-0.3,0.1-0.5,0.1h-0.7c-0.1,0-0.1,0-0.2-0.1c0,0-0.1-0.1-0.1-0.1
		c0-0.1,0-0.1,0.1-0.1C276.5,276.3,276.6,276.3,276.7,276.3z M277,276.3h0.4c0.1,0,0.3,0,0.3-0.1c0.1-0.1,0.2-0.1,0.2-0.2
		c0-0.1,0.1-0.2,0.1-0.3v-0.2c0-0.1,0-0.2-0.1-0.3c-0.1-0.1-0.1-0.2-0.2-0.3c-0.1-0.1-0.2-0.1-0.3-0.1H277V276.3z"/>
	<path d="M280.5,274.9v1c0,0.2-0.1,0.4-0.2,0.6c-0.2,0.2-0.4,0.2-0.6,0.2c-0.1,0-0.2,0-0.3-0.1c-0.1,0-0.2-0.1-0.3-0.2
		c-0.1-0.1-0.1-0.2-0.2-0.2c0-0.1-0.1-0.2-0.1-0.3v-1c-0.1,0-0.1,0-0.2-0.1c0,0-0.1-0.1-0.1-0.1c0-0.1,0-0.1,0.1-0.1
		c0,0,0.1,0,0.2,0l0.5,0c0.1,0,0.1,0,0.2,0.1c0,0,0.1,0.1,0.1,0.1c0,0.1,0,0.1-0.1,0.1c0,0-0.1,0.1-0.2,0.1h-0.1v1.1
		c0,0.1,0,0.2,0.1,0.3c0.1,0.1,0.2,0.1,0.3,0.1c0.1,0,0.2,0,0.2-0.1c0.1,0,0.1-0.1,0.2-0.2c0,0,0-0.1,0-0.2v-1.1H280
		c-0.1,0-0.1,0-0.2-0.1c0,0-0.1-0.1-0.1-0.1c0-0.1,0-0.1,0.1-0.1c0,0,0.1-0.1,0.2-0.1l0.5,0c0.1,0,0.1,0,0.2,0c0,0,0.1,0.1,0.1,0.1
		c0,0.1,0,0.1-0.1,0.1C280.6,274.9,280.6,274.9,280.5,274.9z"/>
	<path d="M282.4,274.6C282.4,274.6,282.4,274.6,282.4,274.6c0.1-0.1,0.1-0.1,0.2-0.1c0.1,0,0.1,0,0.1,0.1c0,0,0.1,0.1,0.1,0.2v0.3
		c0,0.1,0,0.1-0.1,0.2c0,0-0.1,0.1-0.1,0.1c0,0-0.1,0-0.1,0c0,0-0.1-0.1-0.1-0.2c0,0,0-0.1,0-0.1c0-0.1-0.1-0.1-0.2-0.1
		c-0.1,0-0.2,0-0.3,0c-0.1,0-0.2,0-0.3,0.1c-0.1,0-0.2,0.1-0.2,0.2c-0.1,0.1-0.1,0.2-0.1,0.4v0.2c0,0.2,0.1,0.3,0.2,0.4
		c0.1,0.1,0.3,0.2,0.5,0.2c0.1,0,0.2,0,0.3-0.1c0.1,0,0.1-0.1,0.2-0.1c0,0,0.1-0.1,0.1-0.1c0,0,0,0,0.1,0c0,0,0.1,0,0.1,0.1
		s0.1,0.1,0.1,0.1s0,0.1-0.1,0.2c-0.1,0.1-0.2,0.1-0.3,0.2c-0.2,0.1-0.3,0.1-0.5,0.1c-0.2,0-0.4,0-0.6-0.1c-0.1-0.1-0.3-0.2-0.4-0.3
		c-0.1-0.2-0.1-0.3-0.1-0.5v-0.2c0-0.2,0-0.4,0.1-0.5c0.1-0.2,0.2-0.3,0.4-0.4c0.2-0.1,0.3-0.1,0.5-0.1c0.1,0,0.2,0,0.3,0
		C282.2,274.5,282.3,274.6,282.4,274.6z"/>
	<path d="M283.6,275.9v0.4h0.1c0.1,0,0.1,0,0.2,0.1c0,0,0.1,0.1,0.1,0.1c0,0.1,0,0.1-0.1,0.1c0,0-0.1,0.1-0.2,0.1h-0.5
		c-0.1,0-0.1,0-0.2-0.1c0,0-0.1-0.1-0.1-0.1c0-0.1,0-0.1,0.1-0.1c0,0,0.1-0.1,0.2-0.1h0.1v-1.4h-0.1c-0.1,0-0.1,0-0.2-0.1
		c0,0-0.1-0.1-0.1-0.1c0-0.1,0-0.1,0.1-0.1c0,0,0.1-0.1,0.2-0.1l0.5,0c0.1,0,0.1,0,0.2,0c0,0,0.1,0.1,0.1,0.1c0,0.1,0,0.1-0.1,0.1
		c0,0-0.1,0.1-0.2,0.1h-0.1v0.5l0.6-0.6c0,0-0.1-0.1-0.1-0.1c0,0,0-0.1,0-0.1c0-0.1,0-0.1,0.1-0.1c0,0,0.1-0.1,0.2-0.1l0.4,0
		c0.1,0,0.1,0,0.2,0c0,0,0.1,0.1,0.1,0.1c0,0.1,0,0.1-0.1,0.1c0,0-0.1,0.1-0.2,0.1l-0.6,0.6c0.1,0.1,0.2,0.2,0.3,0.3
		c0.1,0.1,0.2,0.3,0.3,0.5h0.1c0.1,0,0.1,0,0.2,0.1c0,0,0.1,0.1,0.1,0.1c0,0.1,0,0.1-0.1,0.1c0,0-0.1,0.1-0.2,0.1h-0.3
		c-0.1-0.2-0.2-0.4-0.2-0.5c-0.1-0.1-0.1-0.2-0.2-0.3c-0.1-0.1-0.1-0.1-0.2-0.1L283.6,275.9z"/>
	<path d="M295,274.9v1.4h0.2c0.1,0,0.1,0,0.2,0.1c0,0,0.1,0.1,0.1,0.1c0,0.1,0,0.1-0.1,0.1c0,0-0.1,0.1-0.2,0.1h-0.8
		c-0.1,0-0.1,0-0.2-0.1c0,0-0.1-0.1-0.1-0.1c0-0.1,0-0.1,0.1-0.1c0,0,0.1-0.1,0.2-0.1h0.2v-1.4h-0.4v0.3c0,0.1,0,0.1-0.1,0.2
		c0,0-0.1,0.1-0.1,0.1c-0.1,0-0.1,0-0.1-0.1c0,0-0.1-0.1-0.1-0.2v-0.7l1.9,0v0.7c0,0.1,0,0.1,0,0.2c0,0-0.1,0.1-0.1,0.1
		c-0.1,0-0.1,0-0.1-0.1c0,0-0.1-0.1-0.1-0.2v-0.3H295z"/>
	<path d="M297.5,276.1h-0.9l-0.1,0.2h0.1c0.1,0,0.1,0,0.2,0.1c0,0,0.1,0.1,0.1,0.1c0,0.1,0,0.1-0.1,0.1c0,0-0.1,0.1-0.2,0.1h-0.5
		c-0.1,0-0.1,0-0.2-0.1c0,0-0.1-0.1-0.1-0.1c0-0.1,0-0.1,0.1-0.1c0,0,0.1-0.1,0.2,0l0.6-1.4h-0.2c-0.1,0-0.1,0-0.2-0.1
		c0,0-0.1-0.1-0.1-0.1c0-0.1,0-0.1,0.1-0.1c0,0,0.1-0.1,0.2-0.1l0.8,0l0.7,1.8c0.1,0,0.1,0,0.2,0c0.1,0,0.1,0.1,0.1,0.2
		c0,0.1,0,0.1-0.1,0.1c0,0-0.1,0.1-0.2,0.1h-0.5c-0.1,0-0.1,0-0.2-0.1c0,0-0.1-0.1-0.1-0.1c0-0.1,0-0.1,0.1-0.1c0,0,0.1-0.1,0.2-0.1
		h0.1L297.5,276.1z M297.3,275.7L297,275l-0.3,0.7H297.3z"/>
	<path d="M299,275.9v0.4h0.4c0.1,0,0.1,0,0.2,0.1c0,0,0.1,0.1,0.1,0.1c0,0.1,0,0.1-0.1,0.1c0,0-0.1,0.1-0.2,0.1h-0.8
		c-0.1,0-0.1,0-0.2-0.1c0,0-0.1-0.1-0.1-0.1c0-0.1,0-0.1,0.1-0.1c0,0,0.1-0.1,0.2-0.1h0.1v-1.4h-0.1c-0.1,0-0.1,0-0.2-0.1
		c0,0-0.1-0.1-0.1-0.1c0-0.1,0-0.1,0.1-0.1c0,0,0.1-0.1,0.2-0.1l0.8,0c0.2,0,0.4,0.1,0.6,0.2c0.1,0.1,0.2,0.3,0.2,0.5
		c0,0.1,0,0.2-0.1,0.3c0,0.1-0.1,0.1-0.2,0.2c-0.1,0.1-0.2,0.1-0.3,0.2c-0.1,0-0.2,0.1-0.4,0.1H299z M299,275.6h0.3
		c0.2,0,0.3,0,0.4-0.1c0.1-0.1,0.1-0.2,0.1-0.3c0-0.1,0-0.2-0.1-0.2c-0.1-0.1-0.2-0.1-0.3-0.1H299V275.6z"/>
	<path d="M301,275.8v0.5h0.9v-0.2c0-0.1,0-0.1,0.1-0.2c0,0,0.1-0.1,0.1-0.1c0.1,0,0.1,0,0.1,0.1c0,0,0.1,0.1,0.1,0.2v0.6h-1.7
		c-0.1,0-0.1,0-0.2-0.1c0,0-0.1-0.1-0.1-0.1c0-0.1,0-0.1,0.1-0.1c0,0,0.1-0.1,0.2-0.1h0.1v-1.4h-0.1c-0.1,0-0.1,0-0.2-0.1
		c0,0-0.1-0.1-0.1-0.1c0-0.1,0-0.1,0.1-0.1c0,0,0.1-0.1,0.2-0.1l1.6,0v0.6c0,0.1,0,0.1,0,0.2c0,0-0.1,0.1-0.1,0.1
		c-0.1,0-0.1,0-0.1-0.1c0,0-0.1-0.1-0.1-0.2v-0.2H301v0.5h0.3c0-0.1,0-0.2,0-0.2c0-0.1,0.1-0.1,0.2-0.1c0.1,0,0.1,0,0.1,0.1
		c0,0,0.1,0.1,0.1,0.2v0.4c0,0.1,0,0.1,0,0.2c0,0.1-0.1,0.1-0.2,0.1c-0.1,0-0.1,0-0.2-0.1c0,0,0-0.1,0-0.2H301z"/>
	<path d="M277.7,279.3h-0.9l-0.1,0.2h0.1c0.1,0,0.1,0,0.2,0.1c0,0,0.1,0.1,0.1,0.1c0,0.1,0,0.1-0.1,0.1c0,0-0.1,0.1-0.2,0.1h-0.5
		c-0.1,0-0.1,0-0.2-0.1c0,0-0.1-0.1-0.1-0.1c0-0.1,0-0.1,0.1-0.1c0,0,0.1-0.1,0.2,0l0.6-1.4h-0.2c-0.1,0-0.1,0-0.2-0.1
		c0,0-0.1-0.1-0.1-0.1c0-0.1,0-0.1,0.1-0.1c0,0,0.1-0.1,0.2-0.1l0.8,0l0.7,1.8c0.1,0,0.1,0,0.2,0c0.1,0,0.1,0.1,0.1,0.2
		c0,0.1,0,0.1-0.1,0.1c0,0-0.1,0.1-0.2,0.1h-0.5c-0.1,0-0.1,0-0.2-0.1c0,0-0.1-0.1-0.1-0.1c0-0.1,0-0.1,0.1-0.1c0,0,0.1-0.1,0.2-0.1
		h0.1L277.7,279.3z M277.6,278.9l-0.3-0.7l-0.3,0.7H277.6z"/>
	<path d="M280.5,279.1v0.4h0.4c0.1,0,0.1,0,0.2,0.1c0,0,0.1,0.1,0.1,0.1c0,0.1,0,0.1-0.1,0.1c0,0-0.1,0.1-0.2,0.1h-0.8
		c-0.1,0-0.1,0-0.2-0.1c0,0-0.1-0.1-0.1-0.1c0-0.1,0-0.1,0.1-0.1c0,0,0.1-0.1,0.2-0.1h0.1v-1.4h-0.1c-0.1,0-0.1,0-0.2-0.1
		c0,0-0.1-0.1-0.1-0.1c0-0.1,0-0.1,0.1-0.1c0,0,0.1-0.1,0.2-0.1l0.8,0c0.2,0,0.4,0.1,0.6,0.2c0.1,0.1,0.2,0.3,0.2,0.5
		c0,0.1,0,0.2-0.1,0.3c0,0.1-0.1,0.1-0.2,0.2c-0.1,0.1-0.2,0.1-0.3,0.2c-0.1,0-0.2,0.1-0.4,0.1H280.5z M280.5,278.8h0.3
		c0.2,0,0.3,0,0.4-0.1c0.1-0.1,0.1-0.2,0.1-0.3c0-0.1,0-0.2-0.1-0.2c-0.1-0.1-0.2-0.1-0.3-0.1h-0.4V278.8z"/>
	<path d="M284,279.1v0.4h0.4c0.1,0,0.1,0,0.2,0.1c0,0,0.1,0.1,0.1,0.1c0,0.1,0,0.1-0.1,0.1c0,0-0.1,0.1-0.2,0.1h-0.8
		c-0.1,0-0.1,0-0.2-0.1c0,0-0.1-0.1-0.1-0.1c0-0.1,0-0.1,0.1-0.1c0,0,0.1-0.1,0.2-0.1h0.1v-1.4h-0.1c-0.1,0-0.1,0-0.2-0.1
		c0,0-0.1-0.1-0.1-0.1c0-0.1,0-0.1,0.1-0.1c0,0,0.1-0.1,0.2-0.1l0.8,0c0.2,0,0.4,0.1,0.6,0.2c0.1,0.1,0.2,0.3,0.2,0.5
		c0,0.1,0,0.2-0.1,0.3c0,0.1-0.1,0.1-0.2,0.2c-0.1,0.1-0.2,0.1-0.3,0.2c-0.1,0-0.2,0.1-0.4,0.1H284z M284,278.8h0.3
		c0.2,0,0.3,0,0.4-0.1c0.1-0.1,0.1-0.2,0.1-0.3c0-0.1,0-0.2-0.1-0.2c-0.1-0.1-0.2-0.1-0.3-0.1H284V278.8z"/>
	<path d="M287.3,279v0.5h0.1c0.1,0,0.1,0,0.2,0.1c0,0,0.1,0.1,0.1,0.1c0,0.1,0,0.1-0.1,0.1c0,0-0.1,0.1-0.2,0.1h-0.5
		c-0.1,0-0.1,0-0.2-0.1c0,0-0.1-0.1-0.1-0.1c0-0.1,0-0.1,0.1-0.1c0,0,0.1-0.1,0.2-0.1h0.1v-1.4h-0.1c-0.1,0-0.1,0-0.2-0.1
		c0,0-0.1-0.1-0.1-0.1c0-0.1,0-0.1,0.1-0.1c0,0,0.1-0.1,0.2-0.1l0.8,0c0.3,0,0.5,0.1,0.6,0.2c0.1,0.1,0.2,0.3,0.2,0.5
		c0,0.1,0,0.2-0.1,0.3c-0.1,0.1-0.2,0.2-0.3,0.2c0.1,0.1,0.2,0.2,0.2,0.3c0.1,0.1,0.1,0.2,0.2,0.3c0.1,0,0.2,0,0.2,0
		c0.1,0,0.1,0.1,0.1,0.2c0,0.1,0,0.1-0.1,0.1c0,0-0.1,0.1-0.2,0.1h-0.2c-0.3-0.5-0.5-0.7-0.7-0.8H287.3z M287.3,278.7h0.3
		c0.1,0,0.2,0,0.3,0c0.1,0,0.2-0.1,0.2-0.1c0,0,0.1-0.1,0.1-0.1c0-0.1,0-0.1-0.1-0.2c-0.1-0.1-0.2-0.1-0.3-0.1h-0.4V278.7z"/>
	<path d="M292.2,278.8c0,0.3-0.1,0.6-0.3,0.8c-0.2,0.2-0.4,0.3-0.7,0.3c-0.2,0-0.5-0.1-0.7-0.3c-0.2-0.2-0.4-0.5-0.4-0.9
		c0-0.4,0.1-0.6,0.4-0.9c0.2-0.2,0.4-0.3,0.7-0.3c0.3,0,0.5,0.1,0.7,0.3C292.1,278.2,292.2,278.5,292.2,278.8z M291.8,278.8
		c0-0.2-0.1-0.4-0.2-0.5c-0.1-0.1-0.3-0.2-0.5-0.2c-0.2,0-0.3,0.1-0.5,0.2c-0.1,0.1-0.2,0.3-0.2,0.5c0,0.2,0.1,0.4,0.2,0.5
		c0.1,0.1,0.3,0.2,0.5,0.2c0.2,0,0.3-0.1,0.5-0.2C291.7,279.2,291.8,279,291.8,278.8z"/>
	<path d="M294.6,279.3l0.5-1.3h-0.1c-0.1,0-0.1,0-0.2-0.1c0,0-0.1-0.1-0.1-0.1c0-0.1,0-0.1,0.1-0.1c0,0,0.1-0.1,0.2-0.1l0.5,0
		c0.1,0,0.1,0,0.2,0c0,0,0.1,0.1,0.1,0.1c0,0.1,0,0.1-0.1,0.2c0,0-0.1,0-0.2,0l-0.7,1.8h-0.3l-0.7-1.8c-0.1,0-0.1,0-0.2,0
		c-0.1,0-0.1-0.1-0.1-0.2c0-0.1,0-0.1,0.1-0.1c0,0,0.1-0.1,0.2-0.1l0.5,0c0.1,0,0.1,0,0.2,0c0,0,0.1,0.1,0.1,0.1
		c0,0.1,0,0.1-0.1,0.1c0,0-0.1,0.1-0.2,0.1h-0.1L294.6,279.3z"/>
	<path d="M297.7,279v0.5h0.9v-0.2c0-0.1,0-0.1,0.1-0.2c0,0,0.1-0.1,0.1-0.1c0.1,0,0.1,0,0.1,0.1c0,0,0.1,0.1,0.1,0.2v0.6h-1.7
		c-0.1,0-0.1,0-0.2-0.1c0,0-0.1-0.1-0.1-0.1c0-0.1,0-0.1,0.1-0.1c0,0,0.1-0.1,0.2-0.1h0.1v-1.4h-0.1c-0.1,0-0.1,0-0.2-0.1
		c0,0-0.1-0.1-0.1-0.1c0-0.1,0-0.1,0.1-0.1c0,0,0.1-0.1,0.2-0.1l1.6,0v0.6c0,0.1,0,0.1,0,0.2c0,0-0.1,0.1-0.1,0.1s-0.1,0-0.1-0.1
		c0,0-0.1-0.1-0.1-0.2v-0.2h-0.8v0.5h0.3c0-0.1,0-0.2,0-0.2c0-0.1,0.1-0.1,0.2-0.1c0.1,0,0.1,0,0.1,0.1c0,0,0.1,0.1,0.1,0.2v0.4
		c0,0.1,0,0.1,0,0.2c0,0.1-0.1,0.1-0.2,0.1c-0.1,0-0.1,0-0.2-0.1c0,0,0-0.1,0-0.2H297.7z"/>
	<path d="M300.8,279.5v-1.4c-0.1,0-0.1,0-0.2-0.1c0,0-0.1-0.1-0.1-0.1c0-0.1,0-0.1,0.1-0.1c0,0,0.1-0.1,0.2-0.1l0.8,0
		c0.1,0,0.2,0,0.3,0.1c0.1,0,0.2,0.1,0.3,0.2c0.1,0.1,0.1,0.1,0.2,0.2c0.1,0.1,0.1,0.2,0.1,0.3s0,0.2,0,0.3v0.2c0,0.2,0,0.3-0.1,0.4
		c-0.1,0.1-0.1,0.2-0.2,0.3c-0.1,0.1-0.2,0.1-0.2,0.2c-0.1,0.1-0.3,0.1-0.5,0.1h-0.7c-0.1,0-0.1,0-0.2-0.1c0,0-0.1-0.1-0.1-0.1
		c0-0.1,0-0.1,0.1-0.1C300.6,279.5,300.7,279.5,300.8,279.5z M301.1,279.5h0.4c0.1,0,0.3,0,0.3-0.1c0.1-0.1,0.2-0.1,0.2-0.2
		c0-0.1,0.1-0.2,0.1-0.3v-0.2c0-0.1,0-0.2-0.1-0.3c-0.1-0.1-0.1-0.2-0.2-0.3s-0.2-0.1-0.3-0.1h-0.4V279.5z"/>
</g>
<path d="M278.2,254.5l10.8-6.3c0.2-0.1,0.6-0.1,0.8,0l10.8,6.3c0.1,0.1,0.2,0.2,0.3,0.3l0.7-0.4l-12.2-7.1l-12.2,7.1l0.7,0.4
	C278,254.6,278.1,254.5,278.2,254.5z"/>
<path d="M300.9,254.8c0.1,0.1,0.1,0.3,0.1,0.4v12.5c0,0.3-0.2,0.6-0.4,0.7l-10.8,6.3c-0.1,0.1-0.3,0.1-0.4,0.1v0.8l12.2-7.1v-14.1
	L300.9,254.8z"/>
<path d="M289.4,247.3l-12.2,7.1v14.1l12.2,7.1l12.2-7.1v-14.1L289.4,247.3z M301.1,267.7c0,0.3-0.2,0.6-0.4,0.7l-10.8,6.3
	c-0.2,0.1-0.6,0.1-0.8,0l-10.8-6.3c-0.2-0.1-0.4-0.4-0.4-0.7v-12.5c0-0.3,0.2-0.6,0.4-0.7l10.8-6.3c0.2-0.1,0.6-0.1,0.8,0l10.8,6.3
	c0.2,0.1,0.4,0.4,0.4,0.7V267.7z"/>
</svg>
