<?xml version="1.0" encoding="UTF-8" standalone="no"?>
<svg
   xmlns:dc="http://purl.org/dc/elements/1.1/"
   xmlns:cc="http://creativecommons.org/ns#"
   xmlns:rdf="http://www.w3.org/1999/02/22-rdf-syntax-ns#"
   xmlns:svg="http://www.w3.org/2000/svg"
   xmlns="http://www.w3.org/2000/svg"
   xmlns:sodipodi="http://sodipodi.sourceforge.net/DTD/sodipodi-0.dtd"
   xmlns:inkscape="http://www.inkscape.org/namespaces/inkscape"
   version="1.1"
   viewBox="0 0 642.2395 223.4235"
   stroke-miterlimit="10"
   id="svg23"
   sodipodi:docname="GDG-mono.svg"
   width="642.2395"
   height="223.42351"
   style="fill:none;stroke:none;stroke-linecap:square;stroke-miterlimit:10"
   inkscape:version="0.92.2 (5c3e80d, 2017-08-06)"
   inkscape:export-filename="/home/rac/Documents/electronics/breakout-boards/ublox_NINA-W102/silkscreen/GDG-logo-mono.png"
   inkscape:export-xdpi="96"
   inkscape:export-ydpi="96">
  <metadata
     id="metadata29">
    <rdf:RDF>
      <cc:Work
         rdf:about="">
        <dc:format>image/svg+xml</dc:format>
        <dc:type
           rdf:resource="http://purl.org/dc/dcmitype/StillImage" />
        <dc:title></dc:title>
      </cc:Work>
    </rdf:RDF>
  </metadata>
  <defs
     id="defs27" />
  <sodipodi:namedview
     pagecolor="#ffffff"
     bordercolor="#666666"
     borderopacity="1"
     objecttolerance="10"
     gridtolerance="10"
     guidetolerance="10"
     inkscape:pageopacity="0"
     inkscape:pageshadow="2"
     inkscape:window-width="2362"
     inkscape:window-height="1530"
     id="namedview25"
     showgrid="false"
     fit-margin-top="0"
     fit-margin-left="0"
     fit-margin-right="0"
     fit-margin-bottom="0"
     inkscape:zoom="0.6"
     inkscape:cx="-136.74344"
     inkscape:cy="73.095706"
     inkscape:window-x="1190"
     inkscape:window-y="405"
     inkscape:window-maximized="0"
     inkscape:current-layer="g21" />
  <clipPath
     id="g38e44dbbcf_2_858.0">
    <path
       d="M 0,0 H 1920 V 1080 H 0 Z"
       id="path2"
       inkscape:connector-curvature="0"
       style="clip-rule:nonzero" />
  </clipPath>
  <g
     clip-path="url(#g38e44dbbcf_2_858.0)"
     id="g21"
     transform="translate(-638.15088,-432.01611)">
    <rect
       style="fill:#ffffff;stroke-width:0.37795275;stroke-miterlimit:4;stroke-dasharray:none"
       id="rect16"
       width="642.2395"
       height="223.42351"
       x="638.15088"
       y="432.01611"
       inkscape:export-xdpi="96"
       inkscape:export-ydpi="96" />
    <path
       d="m 1037.327,490.84927 c 29.6014,0 47.951,16.60162 47.951,47.29349 0,30.80084 -18.3496,47.29345 -47.951,47.29345 h -21.9548 v -94.58694 z m -42.48871,-20.53391 v 135.65808 h 41.83441 c 42.4888,0 69.2484,-28.07141 69.2484,-67.83069 0,-39.64694 -26.7596,-67.82739 -69.2484,-67.82739 z"
       id="path7"
       inkscape:connector-curvature="0"
       style="fill:#000000;fill-rule:evenodd"
       inkscape:export-xdpi="96"
       inkscape:export-ydpi="96" />
    <path
       d="m 912.045,466.71017 c -39.42883,0 -72.52301,32.00372 -72.52301,71.43259 0,39.32306 33.09418,71.43256 72.52301,71.43256 21.19153,0 37.24792,-6.98896 49.80817,-20.09778 12.88739,-12.88739 16.8197,-30.90991 16.8197,-45.54541 0.10907,-4.58655 -0.32715,-8.51886 -0.98139,-11.90595 h -65.0979 v 20.09772 h 45.8725 c -1.52997,10.26697 -5.02276,18.34967 -10.37597,23.59387 -6.77088,6.87989 -17.4773,14.30835 -36.04511,14.30835 -28.83472,0 -51.22577,-23.15771 -51.22577,-51.88336 0,-28.72571 22.39105,-51.88006 51.22577,-51.88006 15.51117,0 26.75958,6.11654 35.17273,13.87213 L 960.9775,486.37174 C 949.29293,475.2291 933.78176,466.71018 912.045,466.71018 Z"
       id="path9"
       inkscape:connector-curvature="0"
       style="fill:#000000;fill-rule:evenodd"
       inkscape:export-xdpi="96"
       inkscape:export-ydpi="96" />
    <path
       d="m 1191.662,466.71017 c -39.3198,0 -72.4174,32.00372 -72.4174,71.43259 0,39.32306 33.0976,71.43256 72.4174,71.43256 21.1882,0 37.2445,-6.98896 49.8081,-20.09778 12.8875,-12.88739 16.9288,-30.90991 16.9288,-45.54541 0,-4.58655 -0.3271,-8.51886 -1.0938,-11.90595 h -65.0979 v 20.09772 h 45.8758 c -1.4209,10.26697 -5.026,18.34967 -10.376,23.59387 -6.7741,6.87989 -17.3682,14.30835 -36.045,14.30835 -28.7257,0 -51.2258,-23.15771 -51.2258,-51.88336 0,-28.72571 22.5001,-51.88006 51.2258,-51.88006 15.5111,0 26.8685,6.11654 35.1693,13.87213 l 13.7632,-13.76309 c -11.688,-11.14264 -27.1958,-19.66156 -48.9325,-19.66156 z"
       id="path11"
       inkscape:connector-curvature="0"
       style="fill:#000000;fill-rule:evenodd"
       inkscape:export-xdpi="96"
       inkscape:export-ydpi="96" />
    <path
       d="m 710.4166,552.0149 -50.02625,78.42474 h 28.39856 l 35.60889,-56.25183 z"
       id="path13"
       inkscape:connector-curvature="0"
       style="fill:#000000;fill-rule:evenodd"
       inkscape:export-xdpi="96"
       inkscape:export-ydpi="96" />
    <path
       d="m 728.6573,580.9587 -31.12805,49.48096 h 27.19574 l 17.47729,-28.61664 z"
       id="path15"
       inkscape:connector-curvature="0"
       style="fill:#000000;fill-rule:evenodd"
       inkscape:export-xdpi="96"
       inkscape:export-ydpi="96" />
    <path
       d="m 661.4842,455.34946 85.52277,138.71799 13.43591,-21.84576 -70.77826,-116.87222 z"
       id="path17"
       inkscape:connector-curvature="0"
       style="fill:#000000;fill-rule:evenodd"
       inkscape:export-xdpi="96"
       inkscape:export-ydpi="96" />
    <path
       d="m 698.4016,455.34946 66.51886,109.22568 7.86456,-12.77838 c 1.63575,-2.62042 2.51142,-5.78937 2.51142,-9.06744 0,-3.38373 -0.87567,-6.55274 -2.51142,-9.17316 l -47.84198,-78.2067 z"
       id="path19"
       inkscape:connector-curvature="0"
       style="fill:#000000;fill-rule:evenodd"
       inkscape:export-xdpi="96"
       inkscape:export-ydpi="96" />
  </g>
</svg>
