%FSLAX45Y45*%
G04 Gerber Fmt 4.5, Leading zero omitted, Abs format (unit mm)*
G04 Created by KiCad (PCBNEW 4.0.7-e2-6376~60~ubuntu17.10.1) date Sat Apr 14 00:34:53 2018*
%MOMM*%
%LPD*%
G01*
G04 APERTURE LIST*
%ADD10C,0.127000*%
%ADD11C,0.100000*%
%ADD12C,0.200000*%
%ADD13C,0.300000*%
G04 APERTURE END LIST*
D10*
D11*
X14250000Y-11100000D02*
X14250000Y-9900000D01*
X15470000Y-11100000D02*
X14250000Y-11100000D01*
X15470000Y-9900000D02*
X15470000Y-11100000D01*
X14250000Y-9900000D02*
X15470000Y-9900000D01*
D12*
X15200000Y-10070000D02*
X15300000Y-10170000D01*
X15300000Y-10070000D02*
X15200000Y-10170000D01*
X15200000Y-10324000D02*
X15300000Y-10424000D01*
X15300000Y-10324000D02*
X15200000Y-10424000D01*
X15200000Y-10578000D02*
X15300000Y-10678000D01*
X15300000Y-10578000D02*
X15200000Y-10678000D01*
X15200000Y-10832000D02*
X15300000Y-10932000D01*
X15300000Y-10832000D02*
X15200000Y-10932000D01*
D13*
X14516428Y-11570714D02*
X14516428Y-11270714D01*
X14587857Y-11270714D01*
X14630714Y-11285000D01*
X14659286Y-11313571D01*
X14673571Y-11342143D01*
X14687857Y-11399286D01*
X14687857Y-11442143D01*
X14673571Y-11499286D01*
X14659286Y-11527857D01*
X14630714Y-11556429D01*
X14587857Y-11570714D01*
X14516428Y-11570714D01*
X14816428Y-11570714D02*
X14816428Y-11370714D01*
X14816428Y-11427857D02*
X14830714Y-11399286D01*
X14845000Y-11385000D01*
X14873571Y-11370714D01*
X14902143Y-11370714D01*
X15002143Y-11570714D02*
X15002143Y-11370714D01*
X15002143Y-11270714D02*
X14987857Y-11285000D01*
X15002143Y-11299286D01*
X15016428Y-11285000D01*
X15002143Y-11270714D01*
X15002143Y-11299286D01*
X15187857Y-11570714D02*
X15159286Y-11556429D01*
X15145000Y-11527857D01*
X15145000Y-11270714D01*
X15345000Y-11570714D02*
X15316428Y-11556429D01*
X15302143Y-11527857D01*
X15302143Y-11270714D01*
X15687857Y-11570714D02*
X15687857Y-11270714D01*
X15787857Y-11485000D01*
X15887857Y-11270714D01*
X15887857Y-11570714D01*
X16159286Y-11570714D02*
X16159286Y-11413571D01*
X16145000Y-11385000D01*
X16116428Y-11370714D01*
X16059286Y-11370714D01*
X16030714Y-11385000D01*
X16159286Y-11556429D02*
X16130714Y-11570714D01*
X16059286Y-11570714D01*
X16030714Y-11556429D01*
X16016428Y-11527857D01*
X16016428Y-11499286D01*
X16030714Y-11470714D01*
X16059286Y-11456429D01*
X16130714Y-11456429D01*
X16159286Y-11442143D01*
X16302143Y-11370714D02*
X16302143Y-11670714D01*
X16302143Y-11385000D02*
X16330714Y-11370714D01*
X16387857Y-11370714D01*
X16416428Y-11385000D01*
X16430714Y-11399286D01*
X16445000Y-11427857D01*
X16445000Y-11513571D01*
X16430714Y-11542143D01*
X16416428Y-11556429D01*
X16387857Y-11570714D01*
X16330714Y-11570714D01*
X16302143Y-11556429D01*
X16573571Y-11542143D02*
X16587857Y-11556429D01*
X16573571Y-11570714D01*
X16559286Y-11556429D01*
X16573571Y-11542143D01*
X16573571Y-11570714D01*
X16573571Y-11385000D02*
X16587857Y-11399286D01*
X16573571Y-11413571D01*
X16559286Y-11399286D01*
X16573571Y-11385000D01*
X16573571Y-11413571D01*
X14145000Y-12015000D02*
X14245000Y-12115000D01*
X14245000Y-12015000D02*
X14145000Y-12115000D01*
X14673571Y-12200714D02*
X14502143Y-12200714D01*
X14587857Y-12200714D02*
X14587857Y-11900714D01*
X14559286Y-11943571D01*
X14530714Y-11972143D01*
X14502143Y-11986429D01*
X14802143Y-12172143D02*
X14816428Y-12186429D01*
X14802143Y-12200714D01*
X14787857Y-12186429D01*
X14802143Y-12172143D01*
X14802143Y-12200714D01*
X15002143Y-11900714D02*
X15030714Y-11900714D01*
X15059286Y-11915000D01*
X15073571Y-11929286D01*
X15087857Y-11957857D01*
X15102143Y-12015000D01*
X15102143Y-12086429D01*
X15087857Y-12143571D01*
X15073571Y-12172143D01*
X15059286Y-12186429D01*
X15030714Y-12200714D01*
X15002143Y-12200714D01*
X14973571Y-12186429D01*
X14959286Y-12172143D01*
X14945000Y-12143571D01*
X14930714Y-12086429D01*
X14930714Y-12015000D01*
X14945000Y-11957857D01*
X14959286Y-11929286D01*
X14973571Y-11915000D01*
X15002143Y-11900714D01*
X15287857Y-11900714D02*
X15316428Y-11900714D01*
X15345000Y-11915000D01*
X15359286Y-11929286D01*
X15373571Y-11957857D01*
X15387857Y-12015000D01*
X15387857Y-12086429D01*
X15373571Y-12143571D01*
X15359286Y-12172143D01*
X15345000Y-12186429D01*
X15316428Y-12200714D01*
X15287857Y-12200714D01*
X15259286Y-12186429D01*
X15245000Y-12172143D01*
X15230714Y-12143571D01*
X15216428Y-12086429D01*
X15216428Y-12015000D01*
X15230714Y-11957857D01*
X15245000Y-11929286D01*
X15259286Y-11915000D01*
X15287857Y-11900714D01*
X15516428Y-12200714D02*
X15516428Y-12000714D01*
X15516428Y-12029286D02*
X15530714Y-12015000D01*
X15559286Y-12000714D01*
X15602143Y-12000714D01*
X15630714Y-12015000D01*
X15645000Y-12043571D01*
X15645000Y-12200714D01*
X15645000Y-12043571D02*
X15659286Y-12015000D01*
X15687857Y-12000714D01*
X15730714Y-12000714D01*
X15759286Y-12015000D01*
X15773571Y-12043571D01*
X15773571Y-12200714D01*
X15916428Y-12200714D02*
X15916428Y-12000714D01*
X15916428Y-12029286D02*
X15930714Y-12015000D01*
X15959286Y-12000714D01*
X16002143Y-12000714D01*
X16030714Y-12015000D01*
X16045000Y-12043571D01*
X16045000Y-12200714D01*
X16045000Y-12043571D02*
X16059286Y-12015000D01*
X16087857Y-12000714D01*
X16130714Y-12000714D01*
X16159286Y-12015000D01*
X16173571Y-12043571D01*
X16173571Y-12200714D01*
X16759286Y-11886429D02*
X16502143Y-12272143D01*
X17145000Y-11900714D02*
X17173571Y-11900714D01*
X17202143Y-11915000D01*
X17216428Y-11929286D01*
X17230714Y-11957857D01*
X17245000Y-12015000D01*
X17245000Y-12086429D01*
X17230714Y-12143571D01*
X17216428Y-12172143D01*
X17202143Y-12186429D01*
X17173571Y-12200714D01*
X17145000Y-12200714D01*
X17116428Y-12186429D01*
X17102143Y-12172143D01*
X17087857Y-12143571D01*
X17073571Y-12086429D01*
X17073571Y-12015000D01*
X17087857Y-11957857D01*
X17102143Y-11929286D01*
X17116428Y-11915000D01*
X17145000Y-11900714D01*
X17373571Y-12172143D02*
X17387857Y-12186429D01*
X17373571Y-12200714D01*
X17359286Y-12186429D01*
X17373571Y-12172143D01*
X17373571Y-12200714D01*
X17573571Y-11900714D02*
X17602143Y-11900714D01*
X17630714Y-11915000D01*
X17645000Y-11929286D01*
X17659286Y-11957857D01*
X17673571Y-12015000D01*
X17673571Y-12086429D01*
X17659286Y-12143571D01*
X17645000Y-12172143D01*
X17630714Y-12186429D01*
X17602143Y-12200714D01*
X17573571Y-12200714D01*
X17545000Y-12186429D01*
X17530714Y-12172143D01*
X17516428Y-12143571D01*
X17502143Y-12086429D01*
X17502143Y-12015000D01*
X17516428Y-11957857D01*
X17530714Y-11929286D01*
X17545000Y-11915000D01*
X17573571Y-11900714D01*
X17773571Y-11900714D02*
X17959286Y-11900714D01*
X17859286Y-12015000D01*
X17902143Y-12015000D01*
X17930714Y-12029286D01*
X17945000Y-12043571D01*
X17959286Y-12072143D01*
X17959286Y-12143571D01*
X17945000Y-12172143D01*
X17930714Y-12186429D01*
X17902143Y-12200714D01*
X17816428Y-12200714D01*
X17787857Y-12186429D01*
X17773571Y-12172143D01*
X18102143Y-12200714D02*
X18159286Y-12200714D01*
X18187857Y-12186429D01*
X18202143Y-12172143D01*
X18230714Y-12129286D01*
X18245000Y-12072143D01*
X18245000Y-11957857D01*
X18230714Y-11929286D01*
X18216428Y-11915000D01*
X18187857Y-11900714D01*
X18130714Y-11900714D01*
X18102143Y-11915000D01*
X18087857Y-11929286D01*
X18073571Y-11957857D01*
X18073571Y-12029286D01*
X18087857Y-12057857D01*
X18102143Y-12072143D01*
X18130714Y-12086429D01*
X18187857Y-12086429D01*
X18216428Y-12072143D01*
X18230714Y-12057857D01*
X18245000Y-12029286D01*
X18359286Y-11900714D02*
X18359286Y-11957857D01*
X18473571Y-11900714D02*
X18473571Y-11957857D01*
X18916428Y-12315000D02*
X18902143Y-12300714D01*
X18873571Y-12257857D01*
X18859286Y-12229286D01*
X18845000Y-12186429D01*
X18830714Y-12115000D01*
X18830714Y-12057857D01*
X18845000Y-11986429D01*
X18859286Y-11943571D01*
X18873571Y-11915000D01*
X18902143Y-11872143D01*
X18916428Y-11857857D01*
X19159286Y-12000714D02*
X19159286Y-12200714D01*
X19087857Y-11886429D02*
X19016428Y-12100714D01*
X19202143Y-12100714D01*
X19545000Y-12200714D02*
X19545000Y-11900714D01*
X19673571Y-12200714D02*
X19673571Y-12043571D01*
X19659286Y-12015000D01*
X19630714Y-12000714D01*
X19587857Y-12000714D01*
X19559286Y-12015000D01*
X19545000Y-12029286D01*
X19859286Y-12200714D02*
X19830714Y-12186429D01*
X19816428Y-12172143D01*
X19802143Y-12143571D01*
X19802143Y-12057857D01*
X19816428Y-12029286D01*
X19830714Y-12015000D01*
X19859286Y-12000714D01*
X19902143Y-12000714D01*
X19930714Y-12015000D01*
X19945000Y-12029286D01*
X19959286Y-12057857D01*
X19959286Y-12143571D01*
X19945000Y-12172143D01*
X19930714Y-12186429D01*
X19902143Y-12200714D01*
X19859286Y-12200714D01*
X20130714Y-12200714D02*
X20102143Y-12186429D01*
X20087857Y-12157857D01*
X20087857Y-11900714D01*
X20359286Y-12186429D02*
X20330714Y-12200714D01*
X20273571Y-12200714D01*
X20245000Y-12186429D01*
X20230714Y-12157857D01*
X20230714Y-12043571D01*
X20245000Y-12015000D01*
X20273571Y-12000714D01*
X20330714Y-12000714D01*
X20359286Y-12015000D01*
X20373571Y-12043571D01*
X20373571Y-12072143D01*
X20230714Y-12100714D01*
X20487857Y-12186429D02*
X20516429Y-12200714D01*
X20573571Y-12200714D01*
X20602143Y-12186429D01*
X20616429Y-12157857D01*
X20616429Y-12143571D01*
X20602143Y-12115000D01*
X20573571Y-12100714D01*
X20530714Y-12100714D01*
X20502143Y-12086429D01*
X20487857Y-12057857D01*
X20487857Y-12043571D01*
X20502143Y-12015000D01*
X20530714Y-12000714D01*
X20573571Y-12000714D01*
X20602143Y-12015000D01*
X20716428Y-12315000D02*
X20730714Y-12300714D01*
X20759286Y-12257857D01*
X20773571Y-12229286D01*
X20787857Y-12186429D01*
X20802143Y-12115000D01*
X20802143Y-12057857D01*
X20787857Y-11986429D01*
X20773571Y-11943571D01*
X20759286Y-11915000D01*
X20730714Y-11872143D01*
X20716428Y-11857857D01*
M02*
