<?xml version="1.0" standalone="no"?>
 <!DOCTYPE svg PUBLIC "-//W3C//DTD SVG 1.1//EN" 
 "http://www.w3.org/Graphics/SVG/1.1/DTD/svg11.dtd"> 
<svg xmlns="http://www.w3.org/2000/svg" version="1.1" 
    width="1.70688cm" height="2.18694cm" viewBox="0 0 6720 8610 ">
<title>SVG Picture created as FPC-DIP_4PIN-F.Paste.svg date 2018/04/14 00:36:22 </title>
  <desc>Picture generated by PCBNEW </desc>
<g style="fill:#000000; fill-opacity:1;stroke:#000000; stroke-opacity:1;
stroke-linecap:round; stroke-linejoin:round; "
 transform="translate(0 0) scale(1 1)">
</g>
<g style="fill:#C2C200; fill-opacity:0.0; 
stroke:#C2C200; stroke-width:-0.000393701; stroke-opacity:1; 
stroke-linecap:round; stroke-linejoin:round;">
</g>
<g style="fill:#C2C200; fill-opacity:0.0; 
stroke:#C2C200; stroke-width:39.3701; stroke-opacity:1; 
stroke-linecap:round; stroke-linejoin:round;">
<path d="M1068 6749
L1068 2024
" />
<path d="M5872 6749
L1068 6749
" />
<path d="M5872 2024
L5872 6749
" />
<path d="M1068 2024
L5872 2024
" />
</g>
<g style="fill:#840000; fill-opacity:0.0; 
stroke:#840000; stroke-width:39.3701; stroke-opacity:1; 
stroke-linecap:round; stroke-linejoin:round;">
</g>
<g style="fill:#840000; fill-opacity:0.0; 
stroke:#840000; stroke-width:0; stroke-opacity:1; 
stroke-linecap:round; stroke-linejoin:round;">
</g>
<g style="fill:#840000; fill-opacity:1.0; 
stroke:#840000; stroke-width:0; stroke-opacity:1; 
stroke-linecap:round; stroke-linejoin:round;">
<polyline style="fill-rule:evenodd;"
points="3116,3748
3746,3748
3746,3847
3116,3847
3116,3748
" /> 
<polyline style="fill-rule:evenodd;"
points="3116,4142
3746,4142
3746,4240
3116,4240
3116,4142
" /> 
<polyline style="fill-rule:evenodd;"
points="3116,4536
3746,4536
3746,4634
3116,4634
3116,4536
" /> 
<polyline style="fill-rule:evenodd;"
points="3116,4929
3746,4929
3746,5028
3116,5028
3116,4929
" /> 
<polyline style="fill-rule:evenodd;"
points="2053,2616
2447,2616
2447,3404
2053,3404
2053,2616
" /> 
<polyline style="fill-rule:evenodd;"
points="2053,5372
2447,5372
2447,6160
2053,6160
2053,5372
" /> 
</g> 
</svg>
