<?xml version="1.0" standalone="no"?>
 <!DOCTYPE svg PUBLIC "-//W3C//DTD SVG 1.1//EN" 
 "http://www.w3.org/Graphics/SVG/1.1/DTD/svg11.dtd"> 
<svg xmlns="http://www.w3.org/2000/svg" version="1.1" 
    width="1.70688cm" height="2.18694cm" viewBox="0 0 6720 8610 ">
<title>SVG Picture created as FPC-DIP_4PIN-F.SilkS.svg date 2018/04/14 00:36:22 </title>
  <desc>Picture generated by PCBNEW </desc>
<g style="fill:#000000; fill-opacity:1;stroke:#000000; stroke-opacity:1;
stroke-linecap:round; stroke-linejoin:round; "
 transform="translate(0 0) scale(1 1)">
</g>
<g style="fill:#C2C200; fill-opacity:0.0; 
stroke:#C2C200; stroke-width:-0.000393701; stroke-opacity:1; 
stroke-linecap:round; stroke-linejoin:round;">
</g>
<g style="fill:#C2C200; fill-opacity:0.0; 
stroke:#C2C200; stroke-width:39.3701; stroke-opacity:1; 
stroke-linecap:round; stroke-linejoin:round;">
<path d="M1068 6749
L1068 2024
" />
<path d="M5872 6749
L1068 6749
" />
<path d="M5872 2024
L5872 6749
" />
<path d="M1068 2024
L5872 2024
" />
</g>
<g style="fill:#C2C200; fill-opacity:0.0; 
stroke:#C2C200; stroke-width:59.0551; stroke-opacity:1; 
stroke-linecap:round; stroke-linejoin:round;">
<path d="M3845 3022
L4126 3022
L4182 3040
L4220 3078
L4239 3134
L4239 3172
" />
<path d="M4239 2628
L4239 2853
" />
<path d="M4239 2740
L3845 2740
L3901 2778
L3939 2815
L3957 2853
" />
<path d="M2306 4545
L2644 4545
L2711 4568
L2756 4613
L2779 4680
L2779 4725
" />
<path d="M2351 4343
L2329 4320
L2306 4275
L2306 4163
L2329 4118
L2351 4095
L2396 4073
L2441 4073
L2509 4095
L2779 4365
L2779 4073
" />
</g>
<g style="fill:#008484; fill-opacity:0.0; 
stroke:#008484; stroke-width:59.0551; stroke-opacity:1; 
stroke-linecap:round; stroke-linejoin:round;">
</g>
<g style="fill:#008484; fill-opacity:0.0; 
stroke:#008484; stroke-width:47.2441; stroke-opacity:1; 
stroke-linecap:round; stroke-linejoin:round;">
<path d="M4482 6414
L5529 6414
" />
<path d="M4482 3390
L4482 6414
" />
<path d="M5529 3390
L5529 6414
" />
<path d="M4482 3390
L5529 3390
" />
<path d="M4482 2890
L4482 2367
" />
<path d="M4482 2367
L5005 2367
" />
</g>
<g style="fill:#008484; fill-opacity:0.0; 
stroke:#008484; stroke-width:59.0551; stroke-opacity:1; 
stroke-linecap:round; stroke-linejoin:round;">
<path d="M1266 6160
L1266 2616
" />
<path d="M1266 2616
L3234 2616
" />
<path d="M3234 2616
L3234 3600
" />
<path d="M3234 3600
L3825 3600
" />
<path d="M3825 3600
L3825 5175
" />
<path d="M3825 5175
L3234 5175
" />
<path d="M3234 5175
L3234 6160
" />
<path d="M3234 6160
L1266 6160
" />
<path d="M3835 3600
L3835 5175
" />
</g> 
</svg>
