<?xml version="1.0" standalone="no"?>
 <!DOCTYPE svg PUBLIC "-//W3C//DTD SVG 1.1//EN" 
 "http://www.w3.org/Graphics/SVG/1.1/DTD/svg11.dtd"> 
<svg xmlns="http://www.w3.org/2000/svg" version="1.1" 
    width="1.70688cm" height="2.18694cm" viewBox="0 0 6720 8610 ">
<title>SVG Picture created as FPC-DIP_4PIN-B.SilkS.svg date 2018/04/14 00:36:22 </title>
  <desc>Picture generated by PCBNEW </desc>
<g style="fill:#000000; fill-opacity:1;stroke:#000000; stroke-opacity:1;
stroke-linecap:round; stroke-linejoin:round; "
 transform="translate(0 0) scale(1 1)">
</g>
<g style="fill:#840084; fill-opacity:0.0; 
stroke:#840084; stroke-width:-0.000393701; stroke-opacity:1; 
stroke-linecap:round; stroke-linejoin:round;">
</g>
<g style="fill:#840084; fill-opacity:0.0; 
stroke:#840084; stroke-width:98.4252; stroke-opacity:1; 
stroke-linecap:round; stroke-linejoin:round;">
<path d="M3982 2247
L4349 2352
L4087 2457
L4349 2562
L3982 2667
" />
<path d="M3982 2825
L4349 2930
L4087 3035
L4349 3140
L3982 3245
" />
<path d="M3982 3402
L4349 3507
L4087 3612
L4349 3717
L3982 3822
" />
<path d="M4297 4032
L4323 4058
L4349 4032
L4323 4006
L4297 4032
L4349 4032
" />
<path d="M4349 4295
L3982 4295
" />
<path d="M4087 4295
L4034 4321
L4008 4347
L3982 4400
L3982 4452
" />
<path d="M4349 4872
L4061 4872
L4008 4846
L3982 4793
L3982 4688
L4008 4636
" />
<path d="M4323 4872
L4349 4820
L4349 4688
L4323 4636
L4270 4610
L4218 4610
L4166 4636
L4139 4688
L4139 4820
L4113 4872
" />
<path d="M4323 5371
L4349 5318
L4349 5213
L4323 5161
L4297 5134
L4244 5108
L4087 5108
L4034 5134
L4008 5161
L3982 5213
L3982 5318
L4008 5371
" />
<path d="M4297 5607
L4323 5633
L4349 5607
L4323 5581
L4297 5607
L4349 5607
" />
<path d="M4323 5843
L4349 5896
L4349 6001
L4323 6053
L4270 6079
L4244 6079
L4192 6053
L4166 6001
L4166 5922
L4139 5869
L4087 5843
L4061 5843
L4008 5869
L3982 5922
L3982 6001
L4008 6053
" />
<path d="M3982 6552
L4349 6552
" />
<path d="M3982 6316
L4270 6316
L4323 6342
L4349 6394
L4349 6473
L4323 6526
L4297 6552
" />
<path d="M1628 2673
L1628 2529
" />
<path d="M1855 2529
L1422 2529
L1422 2735
" />
<path d="M1855 2900
L1422 2900
L1422 3065
L1442 3106
L1463 3127
L1504 3147
L1566 3147
L1607 3127
L1628 3106
L1649 3065
L1649 2900
" />
<path d="M1814 3580
L1834 3560
L1855 3498
L1855 3457
L1834 3395
L1793 3353
L1752 3333
L1669 3312
L1607 3312
L1525 3333
L1484 3353
L1442 3395
L1422 3457
L1422 3498
L1442 3560
L1463 3580
" />
<path d="M1731 4075
L1731 4281
" />
<path d="M1855 4034
L1422 4178
L1855 4323
" />
<path d="M1855 4653
L1422 4653
" />
<path d="M1834 4653
L1855 4611
L1855 4529
L1834 4488
L1814 4467
L1772 4446
L1649 4446
L1607 4467
L1587 4488
L1566 4529
L1566 4611
L1587 4653
" />
<path d="M1855 5044
L1628 5044
L1587 5024
L1566 4983
L1566 4900
L1587 4859
" />
<path d="M1834 5044
L1855 5003
L1855 4900
L1834 4859
L1793 4838
L1752 4838
L1711 4859
L1690 4900
L1690 5003
L1669 5044
" />
<path d="M1566 5251
L1999 5251
" />
<path d="M1587 5251
L1566 5292
L1566 5374
L1587 5416
L1607 5436
L1649 5457
L1772 5457
L1814 5436
L1834 5416
L1855 5374
L1855 5292
L1834 5251
" />
<path d="M1566 5581
L1566 5746
" />
<path d="M1422 5643
L1793 5643
L1834 5663
L1855 5704
L1855 5746
" />
<path d="M1834 6055
L1855 6014
L1855 5931
L1834 5890
L1793 5869
L1628 5869
L1587 5890
L1566 5931
L1566 6014
L1587 6055
L1628 6076
L1669 6076
L1711 5869
" />
<path d="M1855 6261
L1566 6261
" />
<path d="M1649 6261
L1607 6282
L1587 6302
L1566 6344
L1566 6385
" />
<path d="M2603 2982
L2603 2735
" />
<path d="M2603 2859
L2170 2859
L2232 2817
L2273 2776
L2294 2735
" />
<path d="M2603 3168
L2314 3168
" />
<path d="M2355 3168
L2335 3188
L2314 3230
L2314 3292
L2335 3333
L2376 3353
L2603 3353
" />
<path d="M2376 3353
L2335 3374
L2314 3415
L2314 3477
L2335 3518
L2376 3539
L2603 3539
" />
<path d="M2603 3745
L2314 3745
" />
<path d="M2355 3745
L2335 3766
L2314 3807
L2314 3869
L2335 3910
L2376 3931
L2603 3931
" />
<path d="M2376 3931
L2335 3952
L2314 3993
L2314 4055
L2335 4096
L2376 4116
L2603 4116
" />
<path d="M2603 4653
L2170 4653
L2170 4818
L2190 4859
L2211 4880
L2252 4900
L2314 4900
L2355 4880
L2376 4859
L2397 4818
L2397 4653
" />
<path d="M2603 5086
L2314 5086
" />
<path d="M2170 5086
L2190 5065
L2211 5086
L2190 5106
L2170 5086
L2211 5086
" />
<path d="M2314 5230
L2314 5395
" />
<path d="M2170 5292
L2541 5292
L2582 5313
L2603 5354
L2603 5395
" />
<path d="M2582 5725
L2603 5684
L2603 5601
L2582 5560
L2562 5539
L2520 5519
L2397 5519
L2355 5539
L2335 5560
L2314 5601
L2314 5684
L2335 5725
" />
<path d="M2603 5911
L2170 5911
" />
<path d="M2603 6096
L2376 6096
L2335 6076
L2314 6034
L2314 5973
L2335 5931
L2355 5911
" />
<path d="M3351 3426
L3145 3281
" />
<path d="M3351 3178
L2918 3178
L2918 3343
L2938 3384
L2959 3405
L3000 3426
L3062 3426
L3103 3405
L3124 3384
L3145 3343
L3145 3178
" />
<path d="M3330 3776
L3351 3735
L3351 3652
L3330 3611
L3289 3591
L3124 3591
L3083 3611
L3062 3652
L3062 3735
L3083 3776
L3124 3797
L3165 3797
L3207 3591
" />
<path d="M3062 3941
L3351 4044
L3062 4147
" />
<path d="M3310 4312
L3330 4333
L3351 4312
L3330 4292
L3310 4312
L3351 4312
" />
<path d="M2918 4931
L2918 4972
L2938 5014
L2959 5034
L3000 5055
L3083 5075
L3186 5075
L3268 5055
L3310 5034
L3330 5014
L3351 4972
L3351 4931
L3330 4890
L3310 4869
L3268 4849
L3186 4828
L3083 4828
L3000 4849
L2959 4869
L2938 4890
L2918 4931
" />
<path d="M3310 5261
L3330 5282
L3351 5261
L3330 5240
L3310 5261
L3351 5261
" />
<path d="M3351 5694
L3351 5447
" />
<path d="M3351 5570
L2918 5570
L2980 5529
L3021 5488
L3042 5447
" />
</g>
<g style="fill:#C2C200; fill-opacity:0.0; 
stroke:#C2C200; stroke-width:98.4252; stroke-opacity:1; 
stroke-linecap:round; stroke-linejoin:round;">
</g>
<g style="fill:#C2C200; fill-opacity:0.0; 
stroke:#C2C200; stroke-width:39.3701; stroke-opacity:1; 
stroke-linecap:round; stroke-linejoin:round;">
<path d="M1068 6749
L1068 2024
" />
<path d="M5872 6749
L1068 6749
" />
<path d="M5872 2024
L5872 6749
" />
<path d="M1068 2024
L5872 2024
" />
</g> 
</svg>
