<?xml version="1.0" standalone="no"?>
 <!DOCTYPE svg PUBLIC "-//W3C//DTD SVG 1.1//EN" 
 "http://www.w3.org/Graphics/SVG/1.1/DTD/svg11.dtd"> 
<svg xmlns="http://www.w3.org/2000/svg" version="1.1" 
    width="29.7002cm" height="21.0007cm" viewBox="0 0 116930 82680 ">
<title>SVG Picture created as FPC-DIP_4PIN-drl_map.svg date 2018/04/14 00:34:59 </title>
  <desc>Picture generated by PCBNEW </desc>
<g style="fill:#000000; fill-opacity:1;stroke:#000000; stroke-opacity:1;
stroke-linecap:round; stroke-linejoin:round; "
 transform="translate(0 0) scale(1 1)">
</g>
<g style="fill:#000000; fill-opacity:0.0; 
stroke:#000000; stroke-width:-0.000393701; stroke-opacity:1; 
stroke-linecap:round; stroke-linejoin:round;">
</g>
<g style="fill:#000000; fill-opacity:0.0; 
stroke:#000000; stroke-width:39.3701; stroke-opacity:1; 
stroke-linecap:round; stroke-linejoin:round;">
<path d="M56102 43700
L56102 38976
" />
<path d="M60905 43700
L56102 43700
" />
<path d="M60905 38976
L60905 43700
" />
<path d="M56102 38976
L60905 38976
" />
</g>
<g style="fill:#000000; fill-opacity:0.0; 
stroke:#000000; stroke-width:78.7402; stroke-opacity:1; 
stroke-linecap:round; stroke-linejoin:round;">
<path d="M59842 39645
L60236 40039
" />
<path d="M60236 39645
L59842 40039
" />
<path d="M59842 40645
L60236 41039
" />
<path d="M60236 40645
L59842 41039
" />
<path d="M59842 41645
L60236 42039
" />
<path d="M60236 41645
L59842 42039
" />
<path d="M59842 42645
L60236 43039
" />
<path d="M60236 42645
L59842 43039
" />
</g>
<g style="fill:#000000; fill-opacity:0.0; 
stroke:#000000; stroke-width:118.11; stroke-opacity:1; 
stroke-linecap:round; stroke-linejoin:round;">
<path d="M57151 45553
L57151 44372
L57432 44372
L57601 44429
L57713 44541
L57769 44654
L57826 44879
L57826 45047
L57769 45272
L57713 45385
L57601 45497
L57432 45553
L57151 45553
" />
<path d="M58332 45553
L58332 44766
" />
<path d="M58332 44991
L58388 44879
L58444 44822
L58557 44766
L58669 44766
" />
<path d="M59063 45553
L59063 44766
" />
<path d="M59063 44372
L59007 44429
L59063 44485
L59119 44429
L59063 44372
L59063 44485
" />
<path d="M59794 45553
L59682 45497
L59625 45385
L59625 44372
" />
<path d="M60413 45553
L60300 45497
L60244 45385
L60244 44372
" />
<path d="M61763 45553
L61763 44372
L62156 45216
L62550 44372
L62550 45553
" />
<path d="M63619 45553
L63619 44935
L63562 44822
L63450 44766
L63225 44766
L63113 44822
" />
<path d="M63619 45497
L63506 45553
L63225 45553
L63113 45497
L63056 45385
L63056 45272
L63113 45160
L63225 45104
L63506 45104
L63619 45047
" />
<path d="M64181 44766
L64181 45947
" />
<path d="M64181 44822
L64294 44766
L64519 44766
L64631 44822
L64687 44879
L64744 44991
L64744 45329
L64687 45441
L64631 45497
L64519 45553
L64294 45553
L64181 45497
" />
<path d="M65250 45441
L65306 45497
L65250 45553
L65194 45497
L65250 45441
L65250 45553
" />
<path d="M65250 44822
L65306 44879
L65250 44935
L65194 44879
L65250 44822
L65250 44935
" />
<path d="M55688 47303
L56082 47696
" />
<path d="M56082 47303
L55688 47696
" />
<path d="M57769 48034
L57095 48034
" />
<path d="M57432 48034
L57432 46853
L57320 47021
L57207 47134
L57095 47190
" />
<path d="M58276 47921
L58332 47978
L58276 48034
L58219 47978
L58276 47921
L58276 48034
" />
<path d="M59063 46853
L59176 46853
L59288 46909
L59344 46965
L59401 47078
L59457 47303
L59457 47584
L59401 47809
L59344 47921
L59288 47978
L59176 48034
L59063 48034
L58951 47978
L58894 47921
L58838 47809
L58782 47584
L58782 47303
L58838 47078
L58894 46965
L58951 46909
L59063 46853
" />
<path d="M60188 46853
L60300 46853
L60413 46909
L60469 46965
L60525 47078
L60582 47303
L60582 47584
L60525 47809
L60469 47921
L60413 47978
L60300 48034
L60188 48034
L60075 47978
L60019 47921
L59963 47809
L59907 47584
L59907 47303
L59963 47078
L60019 46965
L60075 46909
L60188 46853
" />
<path d="M61088 48034
L61088 47246
" />
<path d="M61088 47359
L61144 47303
L61257 47246
L61425 47246
L61538 47303
L61594 47415
L61594 48034
" />
<path d="M61594 47415
L61650 47303
L61763 47246
L61931 47246
L62044 47303
L62100 47415
L62100 48034
" />
<path d="M62663 48034
L62663 47246
" />
<path d="M62663 47359
L62719 47303
L62831 47246
L63000 47246
L63113 47303
L63169 47415
L63169 48034
" />
<path d="M63169 47415
L63225 47303
L63338 47246
L63506 47246
L63619 47303
L63675 47415
L63675 48034
" />
<path d="M65981 46796
L64969 48315
" />
<path d="M67499 46853
L67612 46853
L67724 46909
L67781 46965
L67837 47078
L67893 47303
L67893 47584
L67837 47809
L67781 47921
L67724 47978
L67612 48034
L67499 48034
L67387 47978
L67331 47921
L67275 47809
L67218 47584
L67218 47303
L67275 47078
L67331 46965
L67387 46909
L67499 46853
" />
<path d="M68399 47921
L68456 47978
L68399 48034
L68343 47978
L68399 47921
L68399 48034
" />
<path d="M69187 46853
L69299 46853
L69412 46909
L69468 46965
L69524 47078
L69580 47303
L69580 47584
L69524 47809
L69468 47921
L69412 47978
L69299 48034
L69187 48034
L69074 47978
L69018 47921
L68962 47809
L68906 47584
L68906 47303
L68962 47078
L69018 46965
L69074 46909
L69187 46853
" />
<path d="M69974 46853
L70705 46853
L70312 47303
L70480 47303
L70593 47359
L70649 47415
L70705 47528
L70705 47809
L70649 47921
L70593 47978
L70480 48034
L70143 48034
L70030 47978
L69974 47921
" />
<path d="M71268 48034
L71493 48034
L71605 47978
L71661 47921
L71774 47753
L71830 47528
L71830 47078
L71774 46965
L71718 46909
L71605 46853
L71380 46853
L71268 46909
L71212 46965
L71155 47078
L71155 47359
L71212 47471
L71268 47528
L71380 47584
L71605 47584
L71718 47528
L71774 47471
L71830 47359
" />
<path d="M72280 46853
L72280 47078
" />
<path d="M72730 46853
L72730 47078
" />
<path d="M74474 48484
L74417 48428
L74305 48259
L74249 48146
L74192 47978
L74136 47696
L74136 47471
L74192 47190
L74249 47021
L74305 46909
L74417 46740
L74474 46684
" />
<path d="M75430 47246
L75430 48034
" />
<path d="M75149 46796
L74867 47640
L75598 47640
" />
<path d="M76948 48034
L76948 46853
" />
<path d="M77455 48034
L77455 47415
L77398 47303
L77286 47246
L77117 47246
L77005 47303
L76948 47359
" />
<path d="M78186 48034
L78073 47978
L78017 47921
L77961 47809
L77961 47471
L78017 47359
L78073 47303
L78186 47246
L78354 47246
L78467 47303
L78523 47359
L78579 47471
L78579 47809
L78523 47921
L78467 47978
L78354 48034
L78186 48034
" />
<path d="M79254 48034
L79142 47978
L79086 47865
L79086 46853
" />
<path d="M80154 47978
L80042 48034
L79817 48034
L79704 47978
L79648 47865
L79648 47415
L79704 47303
L79817 47246
L80042 47246
L80154 47303
L80210 47415
L80210 47528
L79648 47640
" />
<path d="M80660 47978
L80773 48034
L80998 48034
L81110 47978
L81167 47865
L81167 47809
L81110 47696
L80998 47640
L80829 47640
L80717 47584
L80660 47471
L80660 47415
L80717 47303
L80829 47246
L80998 47246
L81110 47303
" />
<path d="M81560 48484
L81616 48428
L81729 48259
L81785 48146
L81841 47978
L81898 47696
L81898 47471
L81841 47190
L81785 47021
L81729 46909
L81616 46740
L81560 46684
" />
</g> 
</svg>
